<svg fill="none" height="120" viewBox="0 0 120 120" width="120" xmlns="http://www.w3.org/2000/svg" xmlns:xlink="http://www.w3.org/1999/xlink"><clipPath id="a"><path d="m0 0h120v120h-120z"/></clipPath><mask id="b" fill="#000" height="17" maskUnits="userSpaceOnUse" width="12" x="54" y="48"><path d="m54 48h12v17h-12z" fill="#fff"/><path clip-rule="evenodd" d="m61 57.874c1.7252-.4441 3-2.0102 3-3.874 0-2.2091-1.7909-4-4-4s-4 1.7909-4 4c0 1.8638 1.2748 3.4299 3 3.874v4.126c0 .5523.4477 1 1 1s1-.4477 1-1z" fill="#000" fill-rule="evenodd"/></mask><g clip-path="url(#a)"><path d="m0 0h120v120h-120z" fill="#131722"/><path clip-rule="evenodd" d="m103.544 47.0255c-1.199 1.0007-1.877 2.52-1.734 4.0751.977 10.6238-2.1824 22.7813-9.6128 33.6029-14.0274 20.4295-37.9663 28.3615-53.4691 17.7165-15.5027-10.6442-16.6987-35.8347-2.6713-56.2641 8.1076-11.8078 19.5261-19.4407 30.7132-21.725 1.5222-.3108 2.7818-1.3823 3.4008-2.8073.6375-1.4679 1.4302-2.899 2.3815-4.2696 7.291-10.50494 21.1359-13.47038 30.9237-6.6234 9.787 6.8469 11.811 20.9134 4.52 31.4184-1.297 1.8682-2.801 3.498-4.452 4.8765z" fill="#2a2e39" fill-rule="evenodd"/><rect fill="#131722" height="58" rx="7" stroke="#d1d4dc" stroke-width="2" width="80" x="20" y="26"/><path d="m6 90h106" stroke="#d1d4dc" stroke-linecap="round" stroke-width="2"/><path clip-rule="evenodd" d="m61 57.874c1.7252-.4441 3-2.0102 3-3.874 0-2.2091-1.7909-4-4-4s-4 1.7909-4 4c0 1.8638 1.2748 3.4299 3 3.874v4.126c0 .5523.4477 1 1 1s1-.4477 1-1z" fill="#131722" fill-rule="evenodd"/><path d="m61 57.874-.4985-1.9369-1.5015.3865v1.5504zm-2 0h2v-1.5504l-1.5015-.3865zm3-3.874c0 .9292-.6355 1.715-1.4985 1.9371l.997 3.8738c2.5874-.666 4.5015-3.0124 4.5015-5.8109zm-2-2c1.1046 0 2 .8954 2 2h4c0-3.3137-2.6863-6-6-6zm-2 2c0-1.1046.8954-2 2-2v-4c-3.3137 0-6 2.6863-6 6zm1.4985 1.9371c-.863-.2221-1.4985-1.0079-1.4985-1.9371h-4c0 2.7985 1.9141 5.1449 4.5015 5.8109zm1.5015 6.0629v-4.126h-4v4.126zm-1-1c.5523 0 1 .4477 1 1h-4c0 1.6569 1.3431 3 3 3zm-1 1c0-.5523.4477-1 1-1v4c1.6569 0 3-1.3431 3-3zm0-4.126v4.126h4v-4.126z" fill="#d1d4dc" mask="url(#b)"/></g></svg>