<svg width="120" height="120" viewBox="0 0 120 120" fill="none" xmlns="http://www.w3.org/2000/svg"><g clip-path="url(#adgm1bxe3)"><path fill-rule="evenodd" clip-rule="evenodd" d="M103.54 47.03a4.78 4.78 0 0 0-1.73 4.07c.98 10.62-2.18 22.78-9.61 33.6-14.03 20.43-37.97 28.36-53.47 17.72s-16.7-35.83-2.67-56.26c8.1-11.81 19.52-19.44 30.71-21.73a4.79 4.79 0 0 0 3.4-2.8c.64-1.47 1.43-2.9 2.38-4.28 7.3-10.5 21.14-13.47 30.93-6.62 9.78 6.85 11.8 20.91 4.52 31.42-1.3 1.87-2.8 3.5-4.46 4.88z" fill="#2A2E39"/><rect x="20" y="26" width="80" height="58" rx="7" fill="#121722" stroke="#B2B5BE" stroke-width="2"/><path d="M6 90h106" stroke="#B2B5BE" stroke-width="2" stroke-linecap="round"/><path fill-rule="evenodd" clip-rule="evenodd" d="M48.53 50.6L52 54.05 53.06 53l-3.47-3.47 3.47-3.47L52 45l-3.47 3.47L45.06 45 44 46.06l3.47 3.47L44 53l1.06 1.06 3.47-3.47zM72.53 50.6L76 54.05 77.06 53l-3.47-3.47 3.47-3.47L76 45l-3.47 3.47L69.06 45 68 46.06l3.47 3.47L68 53l1.06 1.06 3.47-3.47z" fill="#B2B5BE"/><path d="M51 64.5h17" stroke="#B2B5BE" stroke-width="1.5"/></g></svg>