<svg width="18" height="18" viewBox="0 0 18 18" fill="currentColor" xmlns="http://www.w3.org/2000/svg"><path fill-rule="evenodd" clip-rule="evenodd" d="M9.26309 4.12421C9.10891 3.93099 8.77817 3.9632 8.68284 4.22082L8.01733 6.01933C7.67481 6.94498 6.94498 7.67481 6.01933 8.01733L4.22082 8.68284C3.92639 8.79179 3.92639 9.20821 4.22082 9.31716L6.01933 9.98267C6.94498 10.3252 7.67481 11.055 8.01733 11.9807L8.68284 13.7792C8.79179 14.0736 9.20821 14.0736 9.31716 13.7792L9.98267 11.9807C10.0041 11.9228 10.027 11.8657 10.0514 11.8095C10.4172 10.9653 11.1129 10.3038 11.9807 9.98267L13.7792 9.31716C14.0736 9.20821 14.0736 8.79179 13.7792 8.68284L11.9807 8.01733C11.9228 7.99592 11.8657 7.973 11.8095 7.94862C10.9653 7.58281 10.3038 6.88713 9.98267 6.01933L9.31716 4.22082C9.30354 4.18401 9.28512 4.15181 9.26309 4.12421Z" fill="currentColor"/></svg>
