<svg width="20" height="20" viewBox="0 0 29 29" fill="none" xmlns="http://www.w3.org/2000/svg">
    <path d="M23.3603 14.6343V14.3849L26.178 12.7546L28.8053 11.2394L27.0347 8.15146L21.6088 11.3161L19.0386 9.80093L17.5726 7.25L20.7139 1.78373L17.6487 0L16.1447 2.62765L14.5074 5.46627H14.2789L12.6606 2.62765L11.1376 0L8.07235 1.78373L11.2137 7.25L9.74774 9.82011L7.21561 11.297L1.77059 8.13228L0 11.2202L2.60828 12.7355L5.42599 14.3849V14.6343L2.60828 16.2837L0 17.7798L1.77059 20.8677L7.19657 17.703L9.7287 19.1799L11.1947 21.75L8.05331 27.2163L11.1185 29L12.6226 26.3724L14.2408 23.5529H14.4883L16.1066 26.3915L17.6107 29.0192L20.6759 27.2355L17.5345 21.7692L19.0005 19.1991L21.5516 17.7222L26.9776 20.8869L28.7482 17.7989L26.1209 16.2837L23.3603 14.6343ZM16.4493 16.5906L14.5074 19.9663H14.2789L12.337 16.5714L8.96716 14.6343V14.3849L12.3179 12.4286L14.2789 9.03373H14.5264L16.4683 12.4094L19.8191 14.3849V14.6343L16.4493 16.5906Z" fill="#A0E66E"/>
</svg>
