<svg width="512" height="512" viewBox="0 0 512 512" fill="none" xmlns="http://www.w3.org/2000/svg">
<path fill-rule="evenodd" clip-rule="evenodd" d="M462.998 312.686L378.726 429.457C366.455 446.484 342.523 453.984 312.046 451.553C269.703 447.903 213.452 425.603 159.659 387.292C142.117 374.95 125.545 361.307 110.085 346.481C81.5796 319.044 60.6285 290.499 49.4089 265.046C37.1376 237.072 36.7318 212.342 49.0031 195.314L133.475 78.5434C145.751 61.5159 169.477 54.0163 200.16 56.447C242.503 59.894 298.548 82.397 352.543 120.509C406.341 158.824 445.821 204.436 462.592 242.954C464.041 246.258 465.324 249.515 466.441 252.724C474.78 276.663 473.82 297.67 462.998 312.686Z" fill="url(#paint0_linear_0_1)"/>
<path fill-rule="evenodd" clip-rule="evenodd" d="M449.5 248.628C433.341 211.935 395.497 168.754 343.955 132.264C292.613 95.7741 239.23 74.0843 198.934 70.8405C174.387 68.8121 154.954 73.2755 145.14 86.856L144.725 87.6648C135.522 101.25 137.568 120.509 147.182 142.402C163.342 179.298 201.181 222.475 252.527 258.965C303.864 295.455 357.252 317.149 397.544 320.393C421.68 322.214 440.707 317.958 450.726 305.186L451.342 304.174C461.16 290.793 459.114 270.928 449.5 248.628ZM374.022 249.441C369.523 255.721 360.319 257.551 349.069 256.534C328.816 254.912 302.227 243.966 276.454 225.723C250.681 207.476 231.658 185.985 223.681 167.539C219.182 157.202 217.956 148.081 222.455 141.792C226.959 135.508 236.162 133.683 247.613 134.496C267.656 136.321 294.455 147.064 320.023 165.311C345.796 183.554 364.819 205.244 372.796 223.695C377.5 234.031 378.726 243.153 374.022 249.441V249.441Z" fill="white"/>
<defs>
<linearGradient id="paint0_linear_0_1" x1="186.66" y1="51.2134" x2="323.14" y2="457.569" gradientUnits="userSpaceOnUse">
<stop stop-color="#27B0E6"/>
<stop offset="0.044" stop-color="#49A1DB"/>
<stop offset="0.11841" stop-color="#7D8ACA"/>
<stop offset="0.21562" stop-color="#A279BD"/>
<stop offset="0.29605" stop-color="#BA6FB6"/>
<stop offset="0.37529" stop-color="#C26BB3"/>
<stop offset="0.46788" stop-color="#D563AD"/>
<stop offset="0.57967" stop-color="#E65BA7"/>
<stop offset="0.70861" stop-color="#F156A3"/>
<stop offset="0.82293" stop-color="#F853A1"/>
<stop offset="1" stop-color="#FA52A0"/>
</linearGradient>
</defs>
</svg>
