<svg xmlns="http://www.w3.org/2000/svg" viewBox="0 0 88 88">
  <path fill="#191927" fill-rule="evenodd" d="M29.42 29.41c.36-.36.58-.85.58-1.4V0h-4v26H0v4h28c.55 0 1.05-.22 1.41-.58h.01zm0 29.18c.36.36.58.86.58 1.4V88h-4V62H0v-4h28c.56 0 1.05.22 1.41.58zm29.16 0c-.36.36-.58.85-.58 1.4V88h4V62h26v-4H60c-.55 0-1.05.22-1.41.58h-.01zM62 26V0h-4v28c0 .55.22 1.05.58 1.41.37.37.86.59 1.41.59H88v-4H62zM18 36c0-1.1.9-2 2-2h10a2 2 0 1 1 0 4H20a2 2 0 0 1-2-2zm0 16c0-1.1.9-2 2-2h10a2 2 0 1 1 0 4H20a2 2 0 0 1-2-2zm16-26a2 2 0 0 1 2-2 2 2 0 0 1 2 2v4a2 2 0 0 1-2 2 2 2 0 0 1-2-2v-4zm16 0a2 2 0 0 1 2-2 2 2 0 0 1 2 2v4a2 2 0 0 1-2 2 2 2 0 0 1-2-2v-4zM34 58a2 2 0 0 1 2-2 2 2 0 0 1 2 2v4a2 2 0 0 1-2 2 2 2 0 0 1-2-2v-4zm16 0a2 2 0 0 1 2-2 2 2 0 0 1 2 2v4a2 2 0 0 1-2 2 2 2 0 0 1-2-2v-4zM34 78a2 2 0 0 1 2-2 2 2 0 0 1 2 2v6a2 2 0 0 1-2 2 2 2 0 0 1-2-2v-6zm16 0a2 2 0 0 1 2-2 2 2 0 0 1 2 2v6a2 2 0 0 1-2 2 2 2 0 0 1-2-2v-6zM34 4a2 2 0 0 1 2-2 2 2 0 0 1 2 2v6a2 2 0 0 1-2 2 2 2 0 0 1-2-2V4zm16 0a2 2 0 0 1 2-2 2 2 0 0 1 2 2v6a2 2 0 0 1-2 2 2 2 0 0 1-2-2V4zm-8 82a2 2 0 1 1 4 0v2h-4v-2zm0-68a2 2 0 1 1 4 0v10a2 2 0 1 1-4 0V18zM66 4a2 2 0 1 1 4 0v8a2 2 0 1 1-4 0V4zm0 72a2 2 0 1 1 4 0v8a2 2 0 1 1-4 0v-8zm-48 0a2 2 0 1 1 4 0v8a2 2 0 1 1-4 0v-8zm0-72a2 2 0 1 1 4 0v8a2 2 0 1 1-4 0V4zm24-4h4v2a2 2 0 1 1-4 0V0zm0 60a2 2 0 1 1 4 0v10a2 2 0 1 1-4 0V60zm14-24c0-1.1.9-2 2-2h10a2 2 0 1 1 0 4H58a2 2 0 0 1-2-2zm0 16c0-1.1.9-2 2-2h10a2 2 0 1 1 0 4H58a2 2 0 0 1-2-2zm-28-6a2 2 0 1 0 0-4 2 2 0 0 0 0 4zm8 26a2 2 0 1 0 0-4 2 2 0 0 0 0 4zm16 0a2 2 0 1 0 0-4 2 2 0 0 0 0 4zM36 20a2 2 0 1 0 0-4 2 2 0 0 0 0 4zm16 0a2 2 0 1 0 0-4 2 2 0 0 0 0 4zm-8-8a2 2 0 1 0 0-4 2 2 0 0 0 0 4zm0 68a2 2 0 1 0 0-4 2 2 0 0 0 0 4zm16-34a2 2 0 1 0 0-4 2 2 0 0 0 0 4zm16-12a2 2 0 1 0 0 4 6 6 0 1 1 0 12 2 2 0 1 0 0 4 10 10 0 1 0 0-20zm-64 0a2 2 0 1 1 0 4 6 6 0 1 0 0 12 2 2 0 1 1 0 4 10 10 0 1 1 0-20zm56-12a2 2 0 1 0 0-4 2 2 0 0 0 0 4zm0 48a2 2 0 1 0 0-4 2 2 0 0 0 0 4zm-48 0a2 2 0 1 0 0-4 2 2 0 0 0 0 4zm0-48a2 2 0 1 0 0-4 2 2 0 0 0 0 4zm24 32a10 10 0 1 1 0-20 10 10 0 0 1 0 20zm0-4a6 6 0 1 0 0-12 6 6 0 0 0 0 12zm36-36a6 6 0 1 1 0-12 6 6 0 0 1 0 12zm0-4a2 2 0 1 0 0-4 2 2 0 0 0 0 4zM10 44c0-1.1.9-2 2-2h8a2 2 0 1 1 0 4h-8a2 2 0 0 1-2-2zm56 0c0-1.1.9-2 2-2h8a2 2 0 1 1 0 4h-8a2 2 0 0 1-2-2zm8 24c0-1.1.9-2 2-2h8a2 2 0 1 1 0 4h-8a2 2 0 0 1-2-2zM3 68c0-1.1.9-2 2-2h8a2 2 0 1 1 0 4H5a2 2 0 0 1-2-2zm0-48c0-1.1.9-2 2-2h8a2 2 0 1 1 0 4H5a2 2 0 0 1-2-2zm71 0c0-1.1.9-2 2-2h8a2 2 0 1 1 0 4h-8a2 2 0 0 1-2-2zm6 66a6 6 0 1 1 0-12 6 6 0 0 1 0 12zm0-4a2 2 0 1 0 0-4 2 2 0 0 0 0 4zM8 86a6 6 0 1 1 0-12 6 6 0 0 1 0 12zm0-4a2 2 0 1 0 0-4 2 2 0 0 0 0 4zm0-68A6 6 0 1 1 8 2a6 6 0 0 1 0 12zm0-4a2 2 0 1 0 0-4 2 2 0 0 0 0 4zm36 36a2 2 0 1 0 0-4 2 2 0 0 0 0 4z"/>
</svg>