<svg width="604" height="600" viewBox="0 0 604 600" fill="none" xmlns="http://www.w3.org/2000/svg">
<path opacity="0.5" d="M537.647 485.782C509.443 521.389 473.553 550.157 432.661 569.934C391.768 589.71 346.932 599.983 301.508 599.983C256.085 599.983 211.25 589.71 170.358 569.934C129.465 550.157 93.5733 521.389 65.37 485.782C63.5511 483.454 62.2546 480.762 61.5673 477.889C60.88 475.015 60.8186 472.028 61.3873 469.129C61.956 466.23 63.1418 463.487 64.8636 461.086C66.5854 458.686 68.8033 456.683 71.3669 455.215L71.4342 455.181C75.6972 452.702 80.7101 451.839 85.5565 452.75C90.403 453.661 94.7595 456.285 97.8313 460.143C122.164 490.852 153.125 515.661 188.399 532.717C223.672 549.772 262.346 558.63 301.527 558.63C340.707 558.63 379.38 549.772 414.653 532.717C449.927 515.661 480.888 490.852 505.221 460.143C508.292 456.285 512.649 453.661 517.495 452.75C522.342 451.839 527.355 452.702 531.618 455.181L531.651 455.215C534.218 456.681 536.439 458.682 538.163 461.082C539.887 463.483 541.074 466.226 541.643 469.127C542.212 472.027 542.149 475.016 541.459 477.89C540.77 480.764 539.469 483.455 537.647 485.782V485.782Z" fill="#0E0F23"/>
<path d="M603.052 298.456C603.104 336.436 595.935 374.08 581.928 409.383C580.819 412.123 579.135 414.593 576.988 416.626C574.841 418.658 572.281 420.206 569.484 421.163C566.687 422.121 563.717 422.466 560.775 422.176C557.832 421.885 554.986 420.966 552.43 419.48L552.397 419.446C548.108 416.964 544.854 413.023 543.228 408.342C541.602 403.661 541.712 398.551 543.539 393.945C557.915 357.513 563.882 318.305 560.992 279.246C558.101 240.187 546.431 202.285 526.849 168.366C507.268 134.446 480.28 105.386 447.901 83.351C415.521 61.3162 378.584 46.8759 339.846 41.1071C334.945 40.3918 330.467 37.9369 327.228 34.191C323.988 30.4452 322.204 25.6586 322.203 20.7061V20.6724C322.195 17.7164 322.822 14.7932 324.042 12.101C325.263 9.40888 327.048 7.01075 329.277 5.06932C331.506 3.12789 334.127 1.68856 336.962 0.848975C339.796 0.00938786 342.778 -0.210824 345.704 0.203277C417.197 10.8841 482.486 46.8571 529.71 101.586C576.933 156.316 602.957 226.169 603.052 298.456V298.456Z" fill="#0E0F23"/>
<path d="M280.851 20.6724V20.7061C280.85 25.6585 279.066 30.4451 275.827 34.191C272.587 37.9368 268.107 40.3918 263.207 41.1071C224.468 46.8757 187.532 61.3159 155.152 83.3506C122.773 105.385 95.7866 134.446 76.2049 168.365C56.6232 202.285 44.9512 240.187 42.061 279.246C39.1708 318.305 45.1355 357.513 59.5116 393.945C61.3309 398.552 61.4393 403.658 59.8144 408.338C58.1895 413.017 54.939 416.958 50.6559 419.446L50.6222 419.48C48.0662 420.966 45.2203 421.885 42.2781 422.176C39.3359 422.466 36.366 422.121 33.5688 421.163C30.7717 420.206 28.2131 418.658 26.066 416.626C23.9189 414.593 22.2335 412.123 21.1241 409.383C4.41988 367.135 -2.52243 321.659 0.814792 276.351C4.15201 231.044 17.6828 187.076 40.3969 147.731C63.111 108.387 94.4199 74.683 131.987 49.1371C169.555 23.5911 212.41 6.86338 257.35 0.20327C260.277 -0.210825 263.257 0.00939638 266.091 0.848996C268.925 1.6886 271.547 3.12793 273.776 5.06938C276.005 7.01082 277.79 9.40895 279.01 12.1011C280.231 14.7933 280.859 17.7165 280.851 20.6724V20.6724Z" fill="#0E0F23" fill-opacity="0.5"/>
<path opacity="0.5" d="M464.938 445.566C444.337 468.503 419.138 486.846 390.981 499.403C362.824 511.96 332.339 518.45 301.509 518.45C270.679 518.45 240.196 511.96 212.039 499.403C183.882 486.846 158.683 468.503 138.082 445.566C136.022 443.274 134.499 440.55 133.625 437.595C132.751 434.639 132.547 431.526 133.029 428.482C133.511 425.437 134.667 422.539 136.411 419.998C138.156 417.457 140.446 415.338 143.113 413.794C147.256 411.438 152.081 410.574 156.785 411.345C161.488 412.117 165.785 414.477 168.958 418.033C185.679 436.623 206.122 451.488 228.961 461.664C251.8 471.839 276.524 477.098 301.528 477.098C326.531 477.098 351.254 471.839 374.093 461.664C396.931 451.488 417.374 436.623 434.095 418.033C436.067 415.845 438.474 414.092 441.162 412.887C443.85 411.683 446.761 411.052 449.706 411.037C453.302 411.034 456.833 411.985 459.94 413.794C462.607 415.339 464.895 417.461 466.637 420.003C468.379 422.545 469.532 425.445 470.011 428.489C470.489 431.534 470.283 434.647 469.405 437.601C468.527 440.556 467.001 443.277 464.938 445.566V445.566Z" fill="#0E0F23"/>
<path d="M521.485 298.456C521.497 321.664 517.834 344.728 510.63 366.791C509.652 369.692 508.041 372.341 505.914 374.543C503.787 376.746 501.197 378.448 498.33 379.527C495.464 380.606 492.395 381.033 489.343 380.779C486.292 380.526 483.333 379.596 480.685 378.059C476.57 375.652 473.408 371.905 471.726 367.444C470.045 362.984 469.947 358.081 471.449 353.557C479.155 329.75 481.776 304.589 479.14 279.704C476.504 254.819 468.67 230.766 456.147 209.101C443.624 187.436 426.69 168.643 406.442 153.939C386.194 139.235 363.082 128.947 338.605 123.743C333.243 122.621 328.546 119.415 325.546 114.831C322.547 110.246 321.489 104.658 322.609 99.2949C323.728 93.9317 326.932 89.2325 331.515 86.2305C336.098 83.2285 341.685 82.1694 347.049 83.2862C396.357 93.7757 440.576 120.861 472.322 160.021C504.069 199.18 521.421 248.044 521.485 298.456V298.456Z" fill="#0E0F23"/>
<path d="M280.849 103.549C280.846 108.285 279.215 112.877 276.229 116.553C273.243 120.23 269.082 122.768 264.447 123.743C239.972 128.943 216.862 139.226 196.614 153.927C176.366 168.628 159.431 187.418 146.907 209.08C134.384 230.742 126.551 254.793 123.914 279.676C121.278 304.558 123.898 329.717 131.604 353.523C133.106 358.047 133.007 362.949 131.326 367.41C129.645 371.87 126.482 375.618 122.368 378.025H122.332C119.688 379.568 116.733 380.502 113.682 380.759C110.631 381.016 107.56 380.589 104.695 379.509C101.83 378.43 99.2415 376.725 97.1183 374.519C94.9951 372.313 93.391 369.661 92.4221 366.756C82.8453 337.41 79.5517 306.378 82.7554 275.675C85.9591 244.973 95.5879 215.289 111.017 188.553C126.446 161.816 147.329 138.626 172.308 120.49C197.288 102.354 225.806 89.6782 256.005 83.2865C257.41 82.986 258.841 82.8359 260.278 82.8389C265.745 82.8782 270.975 85.077 274.829 88.9563C278.683 92.8355 280.847 98.0807 280.849 103.549V103.549Z" fill="#0E0F23" fill-opacity="0.5"/>
</svg>
