<?xml version="1.0" encoding="UTF-8" standalone="no"?>
<!DOCTYPE svg PUBLIC "-//W3C//DTD SVG 1.1//EN" "http://www.w3.org/Graphics/SVG/1.1/DTD/svg11.dtd">
<svg width="100%" height="100%" viewBox="0 0 25 28" version="1.1" xmlns="http://www.w3.org/2000/svg" xmlns:xlink="http://www.w3.org/1999/xlink" xml:space="preserve" xmlns:serif="http://www.serif.com/" style="fill-rule:evenodd;clip-rule:evenodd;stroke-linejoin:round;stroke-miterlimit:2;">
    <g transform="matrix(1,0,0,1,-12220.3,-5297.2)">
        <g transform="matrix(1,0,0,3.66898,12003.9,4553.63)">
            <g transform="matrix(1.33333,0,0,0.363407,-8,11.5127)">
                <path d="M177.976,534.347L177.976,535.403C177.976,535.739 178.043,536.02 178.175,536.239C178.357,536.542 178.657,536.715 178.997,536.715C179.329,536.715 179.66,536.553 179.98,536.233L183.467,532.746C184.233,531.98 184.233,530.735 183.467,529.969L179.98,526.482C179.66,526.162 179.329,526 178.997,526C178.489,526 177.976,526.406 177.976,527.312L177.976,528.271C173.025,528.563 168.926,532.363 168.317,537.337C168.283,537.615 168.441,537.881 168.701,537.984C168.775,538.013 168.852,538.027 168.928,538.027C169.119,538.027 169.306,537.937 169.424,537.775C171.058,535.543 173.682,534.21 176.442,534.21C176.953,534.21 177.467,534.256 177.976,534.347Z" style="fill:white;fill-rule:nonzero;"/>
            </g>
        </g>
        <g transform="matrix(1,0,0,3.66898,12003.9,4553.63)">
            <g transform="matrix(1.33333,0,0,0.363407,-8,11.5127)">
                <path d="M186.288,535.016C186.027,534.913 185.73,534.999 185.565,535.225C183.931,537.457 181.308,538.79 178.548,538.79C178.036,538.79 177.522,538.744 177.013,538.653L177.013,537.597C177.013,536.691 176.501,536.285 175.993,536.285C175.66,536.285 175.329,536.447 175.009,536.767L171.522,540.254C170.756,541.02 170.756,542.265 171.522,543.031L175.009,546.518C175.329,546.838 175.66,547 175.993,547C176.501,547 177.013,546.594 177.013,545.688L177.013,544.729C181.964,544.437 186.063,540.637 186.672,535.663C186.706,535.385 186.548,535.119 186.288,535.016Z" style="fill:white;fill-rule:nonzero;"/>
            </g>
        </g>
    </g>
</svg>
