<svg width="30" height="30" viewBox="0 0 30 30" fill="none" xmlns="http://www.w3.org/2000/svg">
<path fill-rule="evenodd" clip-rule="evenodd" d="M30 7.49999C30 11.6421 26.6421 15 22.5 15C18.3702 15 15.02 11.6621 15.0001 7.537C14.9803 11.6499 11.6499 14.9803 7.53705 15.0001C11.6621 15.02 15 18.3702 15 22.5C15 26.6421 11.6421 30 7.49999 30C3.35786 30 0 26.6421 0 22.5C0 18.3701 3.33795 15.0199 7.46312 15.0001C3.33804 14.9801 0.000182196 11.6299 0.000182196 7.50017C0.000182196 3.35804 3.35804 0.000182196 7.50017 0.000182196C11.6299 0.000182196 14.9801 3.33804 15.0001 7.46312C15.0199 3.33795 18.3701 0 22.5 0C26.6421 0 30 3.35786 30 7.49999ZM22.5 15C18.3578 15 15 18.3578 15 22.5C15 26.6421 18.3578 30 22.5 30C26.6421 30 30 26.6421 30 22.5C30 18.3578 26.6421 15 22.5 15Z" fill="#27A577"/>
</svg>
