<svg width="512" height="512" viewBox="0 0 604 600" fill="none" xmlns="http://www.w3.org/2000/svg"><path opacity=".5" d="M537.647 485.782a301.258 301.258 0 0 1-104.986 84.152A301.236 301.236 0 0 1 65.37 485.782a20.607 20.607 0 0 1 5.997-30.567l.067-.034a20.544 20.544 0 0 1 26.397 4.962 259.885 259.885 0 0 0 316.822 72.574 259.902 259.902 0 0 0 90.568-72.574 20.538 20.538 0 0 1 26.397-4.962l.033.034a20.59 20.59 0 0 1 9.992 13.912 20.587 20.587 0 0 1-3.996 16.655Z" fill="#0E0F23"/><path d="M603.052 298.456a299.67 299.67 0 0 1-21.124 110.927 20.636 20.636 0 0 1-12.444 11.78 20.63 20.63 0 0 1-17.054-1.683l-.033-.034a20.663 20.663 0 0 1-8.858-25.501A260.179 260.179 0 0 0 339.846 41.107a20.62 20.62 0 0 1-17.643-20.401v-.034A20.618 20.618 0 0 1 345.704.202a301.966 301.966 0 0 1 257.348 298.253v.001Z" fill="#0E0F23"/><path d="M280.851 20.672v.034a20.624 20.624 0 0 1-17.644 20.401A260.178 260.178 0 0 0 59.512 393.945a20.7 20.7 0 0 1 .302 14.393 20.702 20.702 0 0 1-9.158 11.108l-.034.034a20.632 20.632 0 0 1-24.556-2.854 20.645 20.645 0 0 1-4.942-7.243A301.56 301.56 0 0 1 257.35.203a20.605 20.605 0 0 1 16.426 4.866 20.617 20.617 0 0 1 7.075 15.603Z" fill="#0E0F23" fill-opacity=".5"/><path opacity=".5" d="M464.938 445.566a219.665 219.665 0 0 1-163.429 72.884 219.664 219.664 0 0 1-163.427-72.884 20.715 20.715 0 0 1-1.671-25.568 20.728 20.728 0 0 1 6.702-6.204 20.838 20.838 0 0 1 25.845 4.239 178.308 178.308 0 0 0 205.135 43.631 178.314 178.314 0 0 0 60.002-43.631 21.17 21.17 0 0 1 15.611-6.996 20.303 20.303 0 0 1 10.234 2.757 20.696 20.696 0 0 1 10.071 14.695 20.71 20.71 0 0 1-5.073 17.077Z" fill="#0E0F23"/><path d="M521.485 298.456a219.79 219.79 0 0 1-10.855 68.335 20.658 20.658 0 0 1-29.945 11.268 20.796 20.796 0 0 1-9.236-24.502 178.695 178.695 0 0 0-15.302-144.456 178.686 178.686 0 0 0-117.542-85.358 20.667 20.667 0 0 1-15.996-24.448 20.664 20.664 0 0 1 24.44-16.009 220.268 220.268 0 0 1 174.436 215.17Z" fill="#0E0F23"/><path d="M280.849 103.549a20.647 20.647 0 0 1-16.402 20.194 178.648 178.648 0 0 0-117.54 85.337 178.674 178.674 0 0 0-15.303 144.443 20.797 20.797 0 0 1-9.236 24.502h-.036a20.59 20.59 0 0 1-29.91-11.269 219.989 219.989 0 0 1 163.583-283.47c1.405-.3 2.836-.45 4.273-.447a20.721 20.721 0 0 1 20.571 20.71Z" fill="#0E0F23" fill-opacity=".5"/></svg>