<?xml version="1.0" standalone="no"?>
<!DOCTYPE svg PUBLIC "-//W3C//DTD SVG 20010904//EN"
 "http://www.w3.org/TR/2001/REC-SVG-20010904/DTD/svg10.dtd">
<svg version="1.0" xmlns="http://www.w3.org/2000/svg"
 width="640.000000pt" height="640.000000pt" viewBox="0 0 640.000000 640.000000"
 preserveAspectRatio="xMidYMid meet">
<metadata>
Created by potrace 1.14, written by Peter Selinger 2001-2017
</metadata>
<g transform="translate(0.000000,640.000000) scale(0.100000,-0.100000)"
fill="#000000" stroke="none">
<path d="M2075 6149 c-191 -19 -361 -68 -480 -140 -134 -80 -124 -67 -1357
-1779 -197 -274 -230 -358 -231 -585 -1 -224 53 -421 189 -695 271 -544 774
-1105 1439 -1605 677 -509 1431 -875 2080 -1008 205 -43 292 -52 485 -51 151
1 204 5 289 23 194 41 338 111 445 216 73 71 1331 1813 1383 1915 56 110 76
205 76 360 0 100 -6 161 -22 234 -59 272 -199 566 -415 871 -667 943 -1910
1822 -3019 2135 -312 89 -646 131 -862 109z m470 -229 c1273 -221 2909 -1401
3463 -2497 118 -235 169 -399 179 -578 7 -136 -6 -207 -54 -305 -113 -232
-384 -335 -814 -309 -1007 62 -2479 936 -3307 1964 -211 262 -402 587 -482
818 -176 511 -10 847 455 923 116 19 407 11 560 -16z"/>
<path d="M2850 4975 c-105 -30 -165 -91 -179 -183 -46 -314 370 -852 945
-1225 375 -242 769 -388 1050 -387 135 1 245 49 291 128 24 41 28 57 28 127 0
94 -16 148 -86 290 -248 504 -979 1062 -1607 1226 -146 38 -350 49 -442 24z"/>
</g>
</svg>
