<svg id="ewthocoo3511" xmlns="http://www.w3.org/2000/svg" xmlns:xlink="http://www.w3.org/1999/xlink" viewBox="0 0 743 790" shape-rendering="geometricPrecision" text-rendering="geometricPrecision"><style><![CDATA[#ewthocoo3512_ts {animation: ewthocoo3512_ts__ts 12200ms linear infinite normal forwards}@keyframes ewthocoo3512_ts__ts { 0% {transform: translate(354.426263px,394.737324px) scale(1,1);animation-timing-function: cubic-bezier(0.420000,0,0.580000,1)} 50.819672% {transform: translate(354.426263px,394.737324px) scale(1.100000,1.100000);animation-timing-function: cubic-bezier(0.420000,0,0.580000,1)} 100% {transform: translate(354.426263px,394.737324px) scale(1,1)} }#ewthocoo3513_to {animation: ewthocoo3513_to__to 12200ms linear infinite normal forwards}@keyframes ewthocoo3513_to__to { 0% {transform: translate(31712.523535px,25422.465423px);animation-timing-function: cubic-bezier(0.420000,0,0.580000,1)} 49.180328% {transform: translate(31712.523535px,25321.600000px);animation-timing-function: cubic-bezier(0.420000,0,0.580000,1)} 100% {transform: translate(31712.523535px,25422.465423px)} }#ewthocoo35170_to {animation: ewthocoo35170_to__to 12200ms linear infinite normal forwards}@keyframes ewthocoo35170_to__to { 0% {transform: translate(-2672.200000px,7049.175166px)} 1.639344% {transform: translate(-2672.200000px,7049.175166px);animation-timing-function: cubic-bezier(0.420000,0,0.580000,1)} 50.819672% {transform: translate(-2672.200000px,6927.882414px);animation-timing-function: cubic-bezier(0.420000,0,0.580000,1)} 100% {transform: translate(-2672.200000px,7049.175166px)} }#ewthocoo35171_tr {animation: ewthocoo35171_tr__tr 12200ms linear infinite normal forwards}@keyframes ewthocoo35171_tr__tr { 0% {transform: translate(18434.984038px,5701.569354px) rotate(13.512612deg)} 1.639344% {transform: translate(18434.984038px,5701.569354px) rotate(13.512612deg);animation-timing-function: cubic-bezier(0.420000,0,0.580000,1)} 50.819672% {transform: translate(18434.984038px,5701.569354px) rotate(-7.635049deg);animation-timing-function: cubic-bezier(0.420000,0,0.580000,1)} 100% {transform: translate(18434.984038px,5701.569354px) rotate(13.512612deg)} }#ewthocoo35171_ts {animation: ewthocoo35171_ts__ts 12200ms linear infinite normal forwards}@keyframes ewthocoo35171_ts__ts { 0% {transform: skewX(-0deg) skewY(0deg) scale(0.710811,0.710811)} 1.639344% {transform: skewX(-0deg) skewY(0deg) scale(0.710811,0.710811);animation-timing-function: cubic-bezier(0.420000,0,0.580000,1)} 50.819672% {transform: skewX(-0deg) skewY(0deg) scale(0.610000,0.610000);animation-timing-function: cubic-bezier(0.420000,0,0.580000,1)} 100% {transform: skewX(-0deg) skewY(0deg) scale(0.710811,0.710811)} }#ewthocoo35199_to {animation: ewthocoo35199_to__to 12200ms linear infinite normal forwards}@keyframes ewthocoo35199_to__to { 0% {transform: translate(-2672.200000px,7049.175166px)} 1.639344% {transform: translate(-2672.200000px,7049.175166px);animation-timing-function: cubic-bezier(0.420000,0,0.580000,1)} 50.819672% {transform: translate(-2672.200000px,6935.045758px);animation-timing-function: cubic-bezier(0.420000,0,0.580000,1)} 100% {transform: translate(-2672.200000px,7049.175166px)} }#ewthocoo351100_tr {animation: ewthocoo351100_tr__tr 12200ms linear infinite normal forwards}@keyframes ewthocoo351100_tr__tr { 0% {transform: translate(18961.700068px,5773.163813px) rotate(-7.115493deg)} 1.639344% {transform: translate(18961.700068px,5773.163813px) rotate(-7.115493deg);animation-timing-function: cubic-bezier(0.420000,0,0.580000,1)} 50.819672% {transform: translate(18961.700068px,5773.163813px) rotate(16.202842deg);animation-timing-function: cubic-bezier(0.420000,0,0.580000,1)} 100% {transform: translate(18961.700068px,5773.163813px) rotate(-7.115493deg)} }#ewthocoo351100_ts {animation: ewthocoo351100_ts__ts 12200ms linear infinite normal forwards}@keyframes ewthocoo351100_ts__ts { 0% {transform: skewX(-0deg) skewY(0deg) scale(0.767247,0.767247)} 1.639344% {transform: skewX(-0deg) skewY(0deg) scale(0.767247,0.767247);animation-timing-function: cubic-bezier(0.420000,0,0.580000,1)} 50.819672% {transform: skewX(-0deg) skewY(0deg) scale(0.670000,0.670000);animation-timing-function: cubic-bezier(0.420000,0,0.580000,1)} 100% {transform: skewX(-0deg) skewY(0deg) scale(0.767247,0.767247)} }]]></style><defs><linearGradient id="ewthocoo35127-fill" x1="8188.860000" y1="4590.020000" x2="8268.028100" y2="4801.325000" spreadMethod="pad" gradientUnits="userSpaceOnUse"><stop id="ewthocoo35127-fill-0" offset="0%" stop-color="rgb(39,176,230)"/><stop id="ewthocoo35127-fill-1" offset="56%" stop-color="rgb(187,110,181)"/><stop id="ewthocoo35127-fill-2" offset="100%" stop-color="rgb(250,82,160)"/></linearGradient><linearGradient id="ewthocoo35150-fill" x1="8188.860000" y1="4590.020000" x2="8268.028100" y2="4801.325000" spreadMethod="pad" gradientUnits="userSpaceOnUse"><stop id="ewthocoo35150-fill-0" offset="0%" stop-color="rgb(39,176,230)"/><stop id="ewthocoo35150-fill-1" offset="56%" stop-color="rgb(187,110,181)"/><stop id="ewthocoo35150-fill-2" offset="100%" stop-color="rgb(250,82,160)"/></linearGradient></defs><g id="ewthocoo3512_ts" transform="translate(354.426263,394.737324) scale(1,1)"><g id="ewthocoo3512" transform="translate(-16021.667370,-12858.037324)" clip-rule="evenodd"><g id="ewthocoo3513_to" transform="translate(31712.523535,25422.465423)"><g id="ewthocoo3513" transform="translate(-31712.523535,-25306.080273)"><g id="ewthocoo3514"><g id="ewthocoo3515" transform="matrix(1 0 0 1 -2672.19999999999982 6922.23999999999978)" clip-rule="evenodd"><g id="ewthocoo3516" transform="matrix(1.79001187930039 -1.85179764014956 -1.85179764014956 -1.79001187930039 17576.86222453840310 9220.70051622897154)" clip-rule="evenodd"><g id="ewthocoo3517" transform="matrix(-0.73152300000000 0.26922700000000 -0.26922700000000 -0.73152300000000 6254.35000000000036 2468.23999999999978)" clip-rule="evenodd"><path id="ewthocoo3518" d="M5318.250000,4680.010000L5183.470000,4386.640000C5182.410000,4384.360000,5183.420000,4381.650000,5185.710000,4380.590000C5187.990000,4379.540000,5190.700000,4380.550000,5191.750000,4382.830000L5326.540000,4676.200000L5318.250000,4680.010000Z" clip-rule="evenodd" fill="rgb(255,255,255)" fill-rule="evenodd" stroke="rgb(255,255,255)" stroke-width="6.900000" stroke-linecap="round" stroke-linejoin="round" stroke-miterlimit="1.500000"/></g><g id="ewthocoo3519" transform="matrix(0.34471800000000 -0.34329800000000 0.37446800000000 0.37601700000000 -479.56799999999998 -811.28599999999994)" clip-rule="evenodd"><path id="ewthocoo35110" d="M438.405000,4109.341012C438.405000,4107.806342,435.131000,4106.562016,431.098000,4106.562016C427.065000,4106.562016,423.791000,4107.806342,423.791000,4109.341012L423.791000,4303.261004C423.791000,4304.795673,427.065000,4306.040000,431.098000,4306.040000C435.131000,4306.040000,438.405000,4304.795673,438.405000,4303.261004L438.405000,4109.341012Z" clip-rule="evenodd" fill="none" fill-rule="evenodd" stroke="rgb(255,255,255)" stroke-width="11" stroke-linecap="round" stroke-linejoin="round" stroke-miterlimit="1.500000"/><path id="ewthocoo35111" d="M438.405000,4109.341012C438.405000,4107.806342,435.131000,4106.562016,431.098000,4106.562016C427.065000,4106.562016,423.791000,4107.806342,423.791000,4109.341012L423.791000,4303.261004C423.791000,4304.795673,427.065000,4306.040000,431.098000,4306.040000C435.131000,4306.040000,438.405000,4304.795673,438.405000,4303.261004L438.405000,4109.341012Z" clip-rule="evenodd" fill="rgb(249,249,249)" fill-rule="evenodd" stroke="rgb(14,15,35)" stroke-width="4.690000" stroke-linecap="round" stroke-linejoin="round" stroke-miterlimit="1.500000"/></g><g id="ewthocoo35112" transform="matrix(0.34471800000000 -0.34329800000000 0.22523600000000 0.22616800000000 91.26139999999999 -238.09500000000000)" clip-rule="evenodd"><rect id="ewthocoo35113" width="14.614000" height="14.469634" rx="0" ry="0" transform="matrix(1 0 0 1 423.79100000000000 4291.56736590904620)" clip-rule="evenodd" fill="rgb(249,249,249)" fill-rule="evenodd" stroke="rgb(14,15,35)" stroke-width="4.730000" stroke-linecap="round" stroke-linejoin="round" stroke-miterlimit="1.500000"/></g><g id="ewthocoo35114" transform="matrix(0.34471800000000 -0.34329800000000 0.21915500000000 0.22006100000000 114.52300000000000 -214.73699999999999)" clip-rule="evenodd"><rect id="ewthocoo35115" width="14.614000" height="14.469634" rx="0" ry="0" transform="matrix(1 0 0 1 423.79100000000000 4291.56736590904620)" clip-rule="evenodd" fill="rgb(249,249,249)" fill-rule="evenodd" stroke="rgb(14,15,35)" stroke-width="4.770000" stroke-linecap="round" stroke-linejoin="round" stroke-miterlimit="1.500000"/></g><g id="ewthocoo35116" transform="matrix(0.34471800000000 -0.34329800000000 0.21298300000000 0.21386400000000 138.13000000000000 -191.03299999999999)" clip-rule="evenodd"><rect id="ewthocoo35117" width="14.614000" height="480.927000" rx="0" ry="0" transform="matrix(1 0 0 1 423.79100000000000 3825.11000000000013)" clip-rule="evenodd" fill="rgb(250,82,160)" fill-rule="evenodd" stroke="rgb(14,15,35)" stroke-width="4.810000" stroke-linecap="round" stroke-linejoin="round" stroke-miterlimit="1.500000"/></g></g></g><g id="ewthocoo35118" transform="matrix(1 0 0 1 -2672.19999999999982 6922.23999999999978)" clip-rule="evenodd"><g id="ewthocoo35119" transform="matrix(0.59620500000000 -0.84290900000000 0.84290900000000 0.59620500000000 17504.90000000000146 6105.52000000000044)" clip-rule="evenodd"><g id="ewthocoo35120" transform="matrix(-0.78641400000000 0 -0 -0.78641400000000 7435.10999999999967 4571.34000000000015)" clip-rule="evenodd"><path id="ewthocoo35121" d="M8319.030000,4778.320000C8319.030000,4791.010000,8280.560000,4801.320000,8233.170000,4801.320000C8185.790000,4801.320000,8147.320000,4791.010000,8147.320000,4778.320000C8147.320000,4778.320000,8147.320000,4575.190000,8147.320000,4575.190000L8319.030000,4575.190000L8319.030000,4778.320000Z" clip-rule="evenodd" fill="none" fill-rule="evenodd" stroke="none" stroke-width="1" stroke-linecap="round" stroke-linejoin="round" stroke-miterlimit="1.500000"/><g id="ewthocoo35122" clip-path="url(#ewthocoo35129)" clip-rule="evenodd"><g id="ewthocoo35123"><g id="ewthocoo35124" clip-rule="evenodd"><path id="ewthocoo35125" d="M8149.190000,4773.520000C8161.050000,4749.950000,8163.140000,4737.600000,8159.630000,4699.920000C8158.210000,4684.750000,8162.970000,4674.350000,8175.280000,4668.590000C8180.260000,4666.260000,8185.800000,4665.170000,8191.280000,4664.990000C8195.270000,4664.860000,8199.320000,4665.240000,8203.200000,4666.190000C8205.990000,4666.870000,8208.780000,4667.860000,8211.260000,4669.330000C8213.020000,4670.380000,8214.660000,4671.700000,8215.950000,4673.300000C8227.010000,4686.960000,8213.200000,4702.980000,8211.960000,4717.210000C8211.780000,4719.280000,8211.770000,4721.410000,8212.240000,4723.450000C8215.080000,4735.830000,8230.970000,4733.590000,8239.540000,4729.580000C8242.320000,4728.290000,8244.940000,4726.690000,8247.270000,4724.690000C8263.250000,4710.930000,8257.740000,4686.190000,8252.210000,4668.940000C8251.040000,4665.260000,8249.720000,4661.630000,8248.330000,4658.030000C8246.580000,4653.480000,8244.650000,4649,8242.710000,4644.530000C8240.300000,4638.950000,8237.780000,4633.420000,8235.510000,4627.780000C8231.320000,4617.340000,8224.310000,4597.090000,8239.030000,4591.270000C8240.940000,4590.520000,8243,4590.210000,8245.030000,4590.080000C8266.130000,4588.780000,8282.570000,4606.610000,8288.500000,4625.200000C8294.790000,4644.940000,8293.660000,4665.720000,8292.280000,4686.110000C8291.300000,4700.550000,8289.580000,4715.230000,8293.390000,4729.430000C8296.650000,4741.620000,8303.830000,4751.550000,8311.450000,4761.370000C8315.190000,4766.190000,8318.980000,4771.170000,8318.980000,4777.480000C8319.010000,4777.760000,8319.030000,4778.040000,8319.030000,4778.320000C8319.030000,4791.010000,8280.560000,4801.320000,8233.170000,4801.320000C8185.790000,4801.320000,8147.320000,4791.010000,8147.320000,4778.320000C8147.320000,4778.050000,8147.330000,4777.780000,8147.370000,4777.510000L8147.150000,4777.510000C8147.260000,4777.290000,8147.380000,4777.070000,8147.490000,4776.850000C8147.760000,4775.720000,8148.330000,4774.600000,8149.190000,4773.520000Z" clip-rule="evenodd" fill="rgb(255,255,255)" fill-rule="evenodd" stroke="none" stroke-width="1" stroke-linecap="round" stroke-linejoin="round" stroke-miterlimit="1.500000"/><path id="ewthocoo35126" d="M8324.180000,4777.140000C8324.220000,4777.530000,8324.240000,4777.920000,8324.240000,4778.320000C8324.240000,4783.550000,8320.250000,4789.160000,8311.830000,4793.510000C8297.080000,4801.130000,8267.400000,4806.530000,8233.170000,4806.530000C8198.950000,4806.530000,8169.270000,4801.130000,8154.520000,4793.510000C8146.100000,4789.160000,8142.110000,4783.550000,8142.110000,4778.320000C8142.110000,4777.820000,8142.140000,4777.330000,8142.210000,4776.840000L8146.610000,4781.900000L8142.590000,4775.200000L8142.420000,4775.660000C8142.460000,4775.490000,8142.510000,4775.320000,8142.560000,4775.150000L8142.530000,4775.110000L8142.610000,4774.950000C8143.040000,4773.530000,8143.740000,4772.130000,8144.750000,4770.760000C8155.970000,4748.370000,8157.800000,4736.400000,8154.440000,4700.400000C8152.790000,4682.640000,8158.660000,4670.610000,8173.070000,4663.880000C8178.690000,4661.250000,8184.930000,4659.990000,8191.110000,4659.790000C8195.570000,4659.640000,8200.090000,4660.070000,8204.430000,4661.130000C8207.720000,4661.940000,8211,4663.120000,8213.920000,4664.850000C8216.210000,4666.210000,8218.320000,4667.950000,8220,4670.030000C8226.740000,4678.360000,8226.270000,4687.380000,8223.560000,4696.520000C8221.430000,4703.680000,8217.740000,4710.870000,8217.140000,4717.660000C8217.010000,4719.200000,8216.960000,4720.780000,8217.310000,4722.290000C8218.140000,4725.910000,8221.050000,4727.190000,8224.210000,4727.480000C8228.700000,4727.880000,8233.770000,4726.530000,8237.340000,4724.870000C8239.680000,4723.770000,8241.910000,4722.440000,8243.870000,4720.750000C8250.640000,4714.920000,8252.660000,4706.690000,8252.600000,4698.160000C8252.530000,4688.630000,8249.870000,4678.690000,8247.260000,4670.520000C8246.110000,4666.940000,8244.820000,4663.410000,8243.470000,4659.900000C8241.750000,4655.410000,8239.850000,4651.010000,8237.940000,4646.600000C8235.500000,4640.980000,8232.970000,4635.400000,8230.680000,4629.720000C8227.920000,4622.840000,8224.210000,4612.030000,8225.040000,4603.140000C8225.730000,4595.820000,8229.120000,4589.590000,8237.120000,4586.430000C8239.530000,4585.480000,8242.140000,4585.050000,8244.710000,4584.890000C8268.220000,4583.440000,8286.850000,4602.910000,8293.460000,4623.620000C8299.950000,4643.990000,8298.900000,4665.430000,8297.470000,4686.460000C8296.530000,4700.330000,8294.760000,4714.440000,8298.410000,4728.080000C8301.490000,4739.590000,8308.370000,4748.910000,8315.560000,4758.180000C8319.940000,4763.820000,8324.050000,4769.780000,8324.180000,4777.140000ZM8149.190000,4773.520000C8161.050000,4749.950000,8163.140000,4737.600000,8159.630000,4699.920000C8158.210000,4684.750000,8162.970000,4674.350000,8175.280000,4668.590000C8180.260000,4666.260000,8185.800000,4665.170000,8191.280000,4664.990000C8195.270000,4664.860000,8199.320000,4665.240000,8203.200000,4666.190000C8205.990000,4666.870000,8208.780000,4667.860000,8211.260000,4669.330000C8213.020000,4670.380000,8214.660000,4671.700000,8215.950000,4673.300000C8227.010000,4686.960000,8213.200000,4702.980000,8211.960000,4717.210000C8211.780000,4719.280000,8211.770000,4721.410000,8212.240000,4723.450000C8215.080000,4735.830000,8230.970000,4733.590000,8239.540000,4729.580000C8242.320000,4728.290000,8244.940000,4726.690000,8247.270000,4724.690000C8263.250000,4710.930000,8257.740000,4686.190000,8252.210000,4668.940000C8251.040000,4665.260000,8249.720000,4661.630000,8248.330000,4658.030000C8246.580000,4653.480000,8244.650000,4649,8242.710000,4644.530000C8240.300000,4638.950000,8237.780000,4633.420000,8235.510000,4627.780000C8231.320000,4617.340000,8224.310000,4597.090000,8239.030000,4591.270000C8240.940000,4590.520000,8243,4590.210000,8245.030000,4590.080000C8266.130000,4588.780000,8282.570000,4606.610000,8288.500000,4625.200000C8294.790000,4644.940000,8293.660000,4665.720000,8292.280000,4686.110000C8291.300000,4700.550000,8289.580000,4715.230000,8293.390000,4729.430000C8296.650000,4741.620000,8303.830000,4751.550000,8311.450000,4761.370000C8315.190000,4766.190000,8318.980000,4771.170000,8318.980000,4777.480000C8319.010000,4777.760000,8319.030000,4778.040000,8319.030000,4778.320000C8319.030000,4791.010000,8280.560000,4801.320000,8233.170000,4801.320000C8185.790000,4801.320000,8147.320000,4791.010000,8147.320000,4778.320000C8147.320000,4778.050000,8147.330000,4777.780000,8147.370000,4777.510000L8147.150000,4777.510000C8147.260000,4777.290000,8147.380000,4777.070000,8147.490000,4776.850000C8147.760000,4775.720000,8148.330000,4774.600000,8149.190000,4773.520000Z" clip-rule="evenodd" fill="rgb(255,255,255)" fill-rule="evenodd" stroke="none" stroke-width="1" stroke-linecap="round" stroke-linejoin="round" stroke-miterlimit="1.500000"/><path id="ewthocoo35127" d="M8149.190000,4773.520000C8161.050000,4749.950000,8163.140000,4737.600000,8159.630000,4699.920000C8158.210000,4684.750000,8162.970000,4674.350000,8175.280000,4668.590000C8180.260000,4666.260000,8185.800000,4665.170000,8191.280000,4664.990000C8195.270000,4664.860000,8199.320000,4665.240000,8203.200000,4666.190000C8205.990000,4666.870000,8208.780000,4667.860000,8211.260000,4669.330000C8213.020000,4670.380000,8214.660000,4671.700000,8215.950000,4673.300000C8227.010000,4686.960000,8213.200000,4702.980000,8211.960000,4717.210000C8211.780000,4719.280000,8211.770000,4721.410000,8212.240000,4723.450000C8215.080000,4735.830000,8230.970000,4733.590000,8239.540000,4729.580000C8242.320000,4728.290000,8244.940000,4726.690000,8247.270000,4724.690000C8263.250000,4710.930000,8257.740000,4686.190000,8252.210000,4668.940000C8251.040000,4665.260000,8249.720000,4661.630000,8248.330000,4658.030000C8246.580000,4653.480000,8244.650000,4649,8242.710000,4644.530000C8240.300000,4638.950000,8237.780000,4633.420000,8235.510000,4627.780000C8231.320000,4617.340000,8224.310000,4597.090000,8239.030000,4591.270000C8240.940000,4590.520000,8243,4590.210000,8245.030000,4590.080000C8266.130000,4588.780000,8282.570000,4606.610000,8288.500000,4625.200000C8294.790000,4644.940000,8293.660000,4665.720000,8292.280000,4686.110000C8291.300000,4700.550000,8289.580000,4715.230000,8293.390000,4729.430000C8296.650000,4741.620000,8303.830000,4751.550000,8311.450000,4761.370000C8315.190000,4766.190000,8318.980000,4771.170000,8318.980000,4777.480000C8319.010000,4777.760000,8319.030000,4778.040000,8319.030000,4778.320000C8319.030000,4791.010000,8280.560000,4801.320000,8233.170000,4801.320000C8185.790000,4801.320000,8147.320000,4791.010000,8147.320000,4778.320000C8147.320000,4778.050000,8147.840000,4775.370000,8149.190000,4773.520000Z" clip-rule="evenodd" fill="url(#ewthocoo35127-fill)" fill-rule="evenodd" stroke="none" stroke-width="1" stroke-linecap="round" stroke-linejoin="round" stroke-miterlimit="1.500000"/><path id="ewthocoo35128" d="M8321.060000,4777.360000C8321.100000,4777.680000,8321.120000,4778,8321.120000,4778.320000C8321.120000,4782.700000,8317.440000,4787.100000,8310.400000,4790.740000C8295.920000,4798.220000,8266.770000,4803.410000,8233.170000,4803.410000C8199.580000,4803.410000,8170.430000,4798.220000,8155.950000,4790.740000C8148.900000,4787.100000,8145.230000,4782.700000,8145.230000,4778.320000C8145.230000,4777.990000,8145.790000,4774.760000,8147.390000,4772.450000C8159.010000,4749.330000,8161,4737.140000,8157.550000,4700.110000C8156.040000,4683.910000,8161.240000,4672.850000,8174.390000,4666.700000C8179.630000,4664.250000,8185.450000,4663.100000,8191.210000,4662.900000C8195.390000,4662.770000,8199.630000,4663.170000,8203.690000,4664.160000C8206.680000,4664.890000,8209.670000,4665.960000,8212.330000,4667.530000C8214.300000,4668.710000,8216.120000,4670.200000,8217.570000,4671.990000C8223.590000,4679.420000,8222.990000,4687.480000,8220.570000,4695.630000C8218.380000,4702.990000,8214.650000,4710.400000,8214.040000,4717.390000C8213.870000,4719.250000,8213.850000,4721.160000,8214.270000,4722.990000C8215.460000,4728.150000,8219.430000,4730.180000,8223.930000,4730.590000C8228.960000,4731.040000,8234.660000,4729.560000,8238.660000,4727.690000C8241.260000,4726.480000,8243.730000,4724.990000,8245.910000,4723.110000C8253.410000,4716.650000,8255.780000,4707.590000,8255.720000,4698.140000C8255.650000,4688.290000,8252.930000,4678.020000,8250.230000,4669.570000C8249.060000,4665.930000,8247.760000,4662.340000,8246.380000,4658.780000C8244.640000,4654.260000,8242.730000,4649.810000,8240.800000,4645.360000C8238.370000,4639.760000,8235.850000,4634.210000,8233.570000,4628.550000C8230.960000,4622.040000,8227.360000,4611.850000,8228.150000,4603.440000C8228.730000,4597.270000,8231.530000,4591.990000,8238.270000,4589.330000C8240.370000,4588.500000,8242.650000,4588.140000,8244.900000,4588C8266.960000,4586.640000,8284.290000,4605.130000,8290.490000,4624.570000C8296.860000,4644.560000,8295.760000,4665.600000,8294.360000,4686.250000C8293.400000,4700.460000,8291.660000,4714.910000,8295.400000,4728.890000C8298.590000,4740.800000,8305.650000,4750.490000,8313.100000,4760.090000C8317.100000,4765.240000,8321.010000,4770.620000,8321.060000,4777.360000ZM8149.190000,4773.520000C8161.050000,4749.950000,8163.140000,4737.600000,8159.630000,4699.920000C8158.210000,4684.750000,8162.970000,4674.350000,8175.280000,4668.590000C8180.260000,4666.260000,8185.800000,4665.170000,8191.280000,4664.990000C8195.270000,4664.860000,8199.320000,4665.240000,8203.200000,4666.190000C8205.990000,4666.870000,8208.780000,4667.860000,8211.260000,4669.330000C8213.020000,4670.380000,8214.660000,4671.700000,8215.950000,4673.300000C8227.010000,4686.960000,8213.200000,4702.980000,8211.960000,4717.210000C8211.780000,4719.280000,8211.770000,4721.410000,8212.240000,4723.450000C8215.080000,4735.830000,8230.970000,4733.590000,8239.540000,4729.580000C8242.320000,4728.290000,8244.940000,4726.690000,8247.270000,4724.690000C8263.250000,4710.930000,8257.740000,4686.190000,8252.210000,4668.940000C8251.040000,4665.260000,8249.720000,4661.630000,8248.330000,4658.030000C8246.580000,4653.480000,8244.650000,4649,8242.710000,4644.530000C8240.300000,4638.950000,8237.780000,4633.420000,8235.510000,4627.780000C8231.320000,4617.340000,8224.310000,4597.090000,8239.030000,4591.270000C8240.940000,4590.520000,8243,4590.210000,8245.030000,4590.080000C8266.130000,4588.780000,8282.570000,4606.610000,8288.500000,4625.200000C8294.790000,4644.940000,8293.660000,4665.720000,8292.280000,4686.110000C8291.300000,4700.550000,8289.580000,4715.230000,8293.390000,4729.430000C8296.650000,4741.620000,8303.830000,4751.550000,8311.450000,4761.370000C8315.190000,4766.190000,8318.980000,4771.170000,8318.980000,4777.480000C8319.010000,4777.760000,8319.030000,4778.040000,8319.030000,4778.320000C8319.030000,4791.010000,8280.560000,4801.320000,8233.170000,4801.320000C8185.790000,4801.320000,8147.320000,4791.010000,8147.320000,4778.320000C8147.320000,4778.050000,8147.840000,4775.370000,8149.190000,4773.520000Z" clip-rule="evenodd" fill="rgb(14,15,35)" fill-rule="evenodd" stroke="none" stroke-width="1" stroke-linecap="round" stroke-linejoin="round" stroke-miterlimit="1.500000"/></g></g><clipPath id="ewthocoo35129"><path id="ewthocoo35130" d="M8319.030000,4778.320000C8319.030000,4791.010000,8280.560000,4801.320000,8233.170000,4801.320000C8185.790000,4801.320000,8147.320000,4791.010000,8147.320000,4778.320000C8147.320000,4778.320000,8147.320000,4575.190000,8147.320000,4575.190000L8319.030000,4575.190000L8319.030000,4778.320000Z" clip-rule="evenodd" fill="rgb(0,0,0)" fill-rule="evenodd" stroke="none" stroke-width="1" stroke-linecap="round" stroke-linejoin="round" stroke-miterlimit="1.500000"/></clipPath></g></g><g id="ewthocoo35131" transform="matrix(0.99994800000000 0.00048000000000 -0.00048000000000 1.00012000000000 0.40527200000000 -0.55034400000000)" clip-rule="evenodd"><g id="ewthocoo35132" transform="matrix(0.55931500000000 0.79075400000000 -0.79075400000000 0.55931500000000 2456.23000000000002 -6762.57999999999993)" clip-rule="evenodd"><path id="ewthocoo35133" d="M5300.610000,5786.960000C5300.370000,5786.790000,5300.140000,5786.610000,5299.910000,5786.430000C5282.500000,5772.570000,5295.820000,5722.450000,5329.970000,5671.690000C5331.410000,5669.560000,5337.550000,5660.880000,5339.150000,5658.740000C5374.460000,5611.280000,5415.680000,5582.440000,5435.330000,5591.430000C5436.230000,5591.840000,5437.080000,5592.330000,5437.880000,5592.900000L5563.770000,5681.940000C5563.770000,5681.940000,5566.500000,5683.950000,5567.080000,5684.510000C5582.970000,5699.950000,5568.480000,5750.710000,5533.500000,5801.390000C5532.780000,5802.440000,5528.110000,5808.990000,5526.500000,5811.150000C5490.480000,5859.540000,5448.390000,5888.590000,5429.330000,5877.900000C5428.860000,5877.630000,5427.040000,5876.380000,5427.040000,5876.380000L5300.610000,5786.960000Z" clip-rule="evenodd" fill="rgb(255,255,255)" fill-rule="evenodd" stroke="rgb(255,255,255)" stroke-width="11.500000" stroke-linecap="round" stroke-miterlimit="1.500000"/></g><g id="ewthocoo35134" transform="matrix(1 0 0 1 34.47530000000000 119.05300000000000)" clip-rule="evenodd"><path id="ewthocoo35135" d="M1040.640000,697.661000C1040.640000,720.384000,989.059000,738.831000,925.525000,738.831000C861.991000,738.831000,810.409000,720.384000,810.409000,697.661000L810.409000,546.583000L810.412000,546.849000C810.812000,569.449000,862.239000,587.753000,925.525000,587.753000C989.059000,587.753000,1040.640000,569.305000,1040.640000,546.583000L1040.640000,697.661000Z" clip-rule="evenodd" fill="rgb(14,15,35)" fill-rule="evenodd" stroke="rgb(14,15,35)" stroke-width="5" stroke-linecap="round" stroke-miterlimit="1.500000"/></g><g id="ewthocoo35136" transform="matrix(1 0 0 1.00422000000000 34.47530000000000 116.74900000000000)" clip-rule="evenodd"><ellipse id="ewthocoo35137" rx="115.115000" ry="41.170000" transform="matrix(1 0 0 1 925.52499999999998 546.58299999999997)" clip-rule="evenodd" fill="rgb(255,255,255)" fill-rule="evenodd" stroke="rgb(14,15,35)" stroke-width="5.190000" stroke-linecap="round" stroke-miterlimit="1.500000"/></g><g id="ewthocoo35138" transform="matrix(0.58653900000000 0 0 0.43944500000000 417.14400000000001 425.44200000000001)" clip-rule="evenodd"><ellipse id="ewthocoo35139" rx="115.115000" ry="41.170000" transform="matrix(1 0 0 1 925.52499999999998 546.58299999999997)" clip-rule="evenodd" fill="rgb(241,79,155)" fill-rule="evenodd" stroke="none" stroke-width="1" stroke-linecap="round" stroke-linejoin="round" stroke-miterlimit="1.500000"/><path id="ewthocoo35140" d="M925.525000,496.312000C879.672000,496.312000,839.898000,505.957000,820.136000,519.584000C808.916000,527.321000,803.589000,537.273000,803.589000,546.583000C803.589000,555.894000,808.916000,565.845000,820.136000,573.582000C839.898000,587.209000,879.672000,596.854000,925.525000,596.854000C971.377000,596.854000,1011.150000,587.209000,1030.910000,573.582000C1042.130000,565.845000,1047.460000,555.894000,1047.460000,546.583000C1047.460000,537.273000,1042.130000,527.321000,1030.910000,519.584000C1011.150000,505.957000,971.377000,496.312000,925.525000,496.312000ZM925.525000,505.413000C989.059000,505.413000,1040.640000,523.861000,1040.640000,546.583000C1040.640000,569.305000,989.059000,587.753000,925.525000,587.753000C861.991000,587.753000,810.409000,569.305000,810.409000,546.583000C810.409000,523.861000,861.991000,505.413000,925.525000,505.413000Z" clip-rule="evenodd" fill="rgb(14,15,35)" fill-rule="evenodd" stroke="none" stroke-width="1" stroke-linecap="round" stroke-linejoin="round" stroke-miterlimit="1.500000"/></g><g id="ewthocoo35141" transform="matrix(0.83603500000000 0 0 0.83603500000000 -8624.01000000000022 -3359.96999999999980)" clip-rule="evenodd"><path id="ewthocoo35142" d="M11345.500000,4849.240000C11382.800000,4869.420000,11424.300000,4873.540000,11463.600000,4873.530000C11503,4873.510000,11551.400000,4867.510000,11581.700000,4849.240000" clip-rule="evenodd" fill="none" fill-rule="evenodd" stroke="rgb(255,255,255)" stroke-width="2.090000" stroke-linecap="round" stroke-linejoin="round" stroke-miterlimit="1.500000" stroke-dasharray="4.170000,4.170000,52.170000,52.170000"/></g></g><g id="ewthocoo35143" transform="matrix(0.78641400000000 0 0 0.78641400000000 -5514.68000000000029 -3092.09999999999991)" clip-rule="evenodd"><path id="ewthocoo35144" d="M8319.030000,4778.320000C8319.030000,4791.010000,8280.560000,4801.320000,8233.170000,4801.320000C8185.790000,4801.320000,8147.320000,4791.010000,8147.320000,4778.320000C8147.320000,4778.320000,8147.320000,4575.190000,8147.320000,4575.190000L8319.030000,4575.190000L8319.030000,4778.320000Z" clip-rule="evenodd" fill="none" fill-rule="evenodd" stroke="none" stroke-width="1" stroke-linecap="round" stroke-linejoin="round" stroke-miterlimit="1.500000"/><g id="ewthocoo35145" clip-path="url(#ewthocoo35152)" clip-rule="evenodd"><g id="ewthocoo35146"><g id="ewthocoo35147" clip-rule="evenodd"><path id="ewthocoo35148" d="M8149.190000,4773.520000C8161.050000,4749.950000,8163.140000,4737.600000,8159.630000,4699.920000C8158.210000,4684.750000,8162.970000,4674.350000,8175.280000,4668.590000C8180.260000,4666.260000,8185.800000,4665.170000,8191.280000,4664.990000C8195.270000,4664.860000,8199.320000,4665.240000,8203.200000,4666.190000C8205.990000,4666.870000,8208.780000,4667.860000,8211.260000,4669.330000C8213.020000,4670.380000,8214.660000,4671.700000,8215.950000,4673.300000C8227.010000,4686.960000,8213.200000,4702.980000,8211.960000,4717.210000C8211.780000,4719.280000,8211.770000,4721.410000,8212.240000,4723.450000C8215.080000,4735.830000,8230.970000,4733.590000,8239.540000,4729.580000C8242.320000,4728.290000,8244.940000,4726.690000,8247.270000,4724.690000C8263.250000,4710.930000,8257.740000,4686.190000,8252.210000,4668.940000C8251.040000,4665.260000,8249.720000,4661.630000,8248.330000,4658.030000C8246.580000,4653.480000,8244.650000,4649,8242.710000,4644.530000C8240.300000,4638.950000,8237.780000,4633.420000,8235.510000,4627.780000C8231.320000,4617.340000,8224.310000,4597.090000,8239.030000,4591.270000C8240.940000,4590.520000,8243,4590.210000,8245.030000,4590.080000C8266.130000,4588.780000,8282.570000,4606.610000,8288.500000,4625.200000C8294.790000,4644.940000,8293.660000,4665.720000,8292.280000,4686.110000C8291.300000,4700.550000,8289.580000,4715.230000,8293.390000,4729.430000C8296.650000,4741.620000,8303.830000,4751.550000,8311.450000,4761.370000C8315.190000,4766.190000,8318.980000,4771.170000,8318.980000,4777.480000C8319.010000,4777.760000,8319.030000,4778.040000,8319.030000,4778.320000C8319.030000,4791.010000,8280.560000,4801.320000,8233.170000,4801.320000C8185.790000,4801.320000,8147.320000,4791.010000,8147.320000,4778.320000C8147.320000,4778.050000,8147.330000,4777.780000,8147.370000,4777.510000L8147.150000,4777.510000C8147.260000,4777.290000,8147.380000,4777.070000,8147.490000,4776.850000C8147.760000,4775.720000,8148.330000,4774.600000,8149.190000,4773.520000Z" clip-rule="evenodd" fill="rgb(255,255,255)" fill-rule="evenodd" stroke="none" stroke-width="1" stroke-linecap="round" stroke-linejoin="round" stroke-miterlimit="1.500000"/><path id="ewthocoo35149" d="M8144.750000,4770.760000C8155.970000,4748.370000,8157.800000,4736.400000,8154.440000,4700.400000C8152.790000,4682.640000,8158.660000,4670.610000,8173.070000,4663.880000C8178.690000,4661.250000,8184.930000,4659.990000,8191.110000,4659.790000C8195.570000,4659.640000,8200.090000,4660.070000,8204.430000,4661.130000C8207.720000,4661.940000,8211,4663.120000,8213.920000,4664.850000C8216.210000,4666.210000,8218.320000,4667.950000,8220,4670.030000C8226.740000,4678.360000,8226.270000,4687.380000,8223.560000,4696.520000C8221.430000,4703.680000,8217.740000,4710.870000,8217.140000,4717.660000C8217.010000,4719.200000,8216.960000,4720.780000,8217.310000,4722.290000C8218.140000,4725.910000,8221.050000,4727.190000,8224.210000,4727.480000C8228.700000,4727.880000,8233.770000,4726.530000,8237.340000,4724.870000C8239.680000,4723.770000,8241.910000,4722.440000,8243.870000,4720.750000C8250.640000,4714.920000,8252.660000,4706.690000,8252.600000,4698.160000C8252.530000,4688.630000,8249.870000,4678.690000,8247.260000,4670.520000C8246.110000,4666.940000,8244.820000,4663.410000,8243.470000,4659.900000C8241.750000,4655.410000,8239.850000,4651.010000,8237.940000,4646.600000C8235.500000,4640.980000,8232.970000,4635.400000,8230.680000,4629.720000C8227.920000,4622.840000,8224.210000,4612.030000,8225.040000,4603.140000C8225.730000,4595.820000,8229.120000,4589.590000,8237.120000,4586.430000C8239.530000,4585.480000,8242.140000,4585.050000,8244.710000,4584.890000C8268.220000,4583.440000,8286.850000,4602.910000,8293.460000,4623.620000C8299.950000,4643.990000,8298.900000,4665.430000,8297.470000,4686.460000C8296.530000,4700.330000,8294.760000,4714.440000,8298.410000,4728.080000C8301.490000,4739.590000,8308.370000,4748.910000,8315.560000,4758.180000C8319.940000,4763.820000,8324.050000,4769.780000,8324.180000,4777.140000C8324.220000,4777.530000,8324.240000,4777.920000,8324.240000,4778.320000C8324.240000,4783.550000,8320.250000,4789.160000,8311.830000,4793.510000C8297.080000,4801.130000,8267.400000,4806.530000,8233.170000,4806.530000C8198.950000,4806.530000,8169.270000,4801.130000,8154.520000,4793.510000C8146.100000,4789.160000,8142.110000,4783.550000,8142.110000,4778.320000C8142.110000,4777.820000,8142.140000,4777.330000,8142.210000,4776.840000L8146.610000,4781.900000L8142.590000,4775.200000L8142.420000,4775.660000C8142.460000,4775.490000,8142.510000,4775.320000,8142.560000,4775.150000L8142.530000,4775.110000L8142.610000,4774.950000C8143.040000,4773.530000,8143.740000,4772.130000,8144.750000,4770.760000ZM8149.190000,4773.520000C8161.050000,4749.950000,8163.140000,4737.600000,8159.630000,4699.920000C8158.210000,4684.750000,8162.970000,4674.350000,8175.280000,4668.590000C8180.260000,4666.260000,8185.800000,4665.170000,8191.280000,4664.990000C8195.270000,4664.860000,8199.320000,4665.240000,8203.200000,4666.190000C8205.990000,4666.870000,8208.780000,4667.860000,8211.260000,4669.330000C8213.020000,4670.380000,8214.660000,4671.700000,8215.950000,4673.300000C8227.010000,4686.960000,8213.200000,4702.980000,8211.960000,4717.210000C8211.780000,4719.280000,8211.770000,4721.410000,8212.240000,4723.450000C8215.080000,4735.830000,8230.970000,4733.590000,8239.540000,4729.580000C8242.320000,4728.290000,8244.940000,4726.690000,8247.270000,4724.690000C8263.250000,4710.930000,8257.740000,4686.190000,8252.210000,4668.940000C8251.040000,4665.260000,8249.720000,4661.630000,8248.330000,4658.030000C8246.580000,4653.480000,8244.650000,4649,8242.710000,4644.530000C8240.300000,4638.950000,8237.780000,4633.420000,8235.510000,4627.780000C8231.320000,4617.340000,8224.310000,4597.090000,8239.030000,4591.270000C8240.940000,4590.520000,8243,4590.210000,8245.030000,4590.080000C8266.130000,4588.780000,8282.570000,4606.610000,8288.500000,4625.200000C8294.790000,4644.940000,8293.660000,4665.720000,8292.280000,4686.110000C8291.300000,4700.550000,8289.580000,4715.230000,8293.390000,4729.430000C8296.650000,4741.620000,8303.830000,4751.550000,8311.450000,4761.370000C8315.190000,4766.190000,8318.980000,4771.170000,8318.980000,4777.480000C8319.010000,4777.760000,8319.030000,4778.040000,8319.030000,4778.320000C8319.030000,4791.010000,8280.560000,4801.320000,8233.170000,4801.320000C8185.790000,4801.320000,8147.320000,4791.010000,8147.320000,4778.320000C8147.320000,4778.050000,8147.330000,4777.780000,8147.370000,4777.510000L8147.150000,4777.510000C8147.260000,4777.290000,8147.380000,4777.070000,8147.490000,4776.850000C8147.760000,4775.720000,8148.330000,4774.600000,8149.190000,4773.520000Z" clip-rule="evenodd" fill="rgb(255,255,255)" fill-rule="evenodd" stroke="none" stroke-width="1" stroke-linecap="round" stroke-linejoin="round" stroke-miterlimit="1.500000"/><path id="ewthocoo35150" d="M8149.190000,4773.520000C8161.050000,4749.950000,8163.140000,4737.600000,8159.630000,4699.920000C8158.210000,4684.750000,8162.970000,4674.350000,8175.280000,4668.590000C8180.260000,4666.260000,8185.800000,4665.170000,8191.280000,4664.990000C8195.270000,4664.860000,8199.320000,4665.240000,8203.200000,4666.190000C8205.990000,4666.870000,8208.780000,4667.860000,8211.260000,4669.330000C8213.020000,4670.380000,8214.660000,4671.700000,8215.950000,4673.300000C8227.010000,4686.960000,8213.200000,4702.980000,8211.960000,4717.210000C8211.780000,4719.280000,8211.770000,4721.410000,8212.240000,4723.450000C8215.080000,4735.830000,8230.970000,4733.590000,8239.540000,4729.580000C8242.320000,4728.290000,8244.940000,4726.690000,8247.270000,4724.690000C8263.250000,4710.930000,8257.740000,4686.190000,8252.210000,4668.940000C8251.040000,4665.260000,8249.720000,4661.630000,8248.330000,4658.030000C8246.580000,4653.480000,8244.650000,4649,8242.710000,4644.530000C8240.300000,4638.950000,8237.780000,4633.420000,8235.510000,4627.780000C8231.320000,4617.340000,8224.310000,4597.090000,8239.030000,4591.270000C8240.940000,4590.520000,8243,4590.210000,8245.030000,4590.080000C8266.130000,4588.780000,8282.570000,4606.610000,8288.500000,4625.200000C8294.790000,4644.940000,8293.660000,4665.720000,8292.280000,4686.110000C8291.300000,4700.550000,8289.580000,4715.230000,8293.390000,4729.430000C8296.650000,4741.620000,8303.830000,4751.550000,8311.450000,4761.370000C8315.190000,4766.190000,8318.980000,4771.170000,8318.980000,4777.480000C8319.010000,4777.760000,8319.030000,4778.040000,8319.030000,4778.320000C8319.030000,4791.010000,8280.560000,4801.320000,8233.170000,4801.320000C8185.790000,4801.320000,8147.320000,4791.010000,8147.320000,4778.320000C8147.320000,4778.050000,8147.840000,4775.370000,8149.190000,4773.520000Z" clip-rule="evenodd" fill="url(#ewthocoo35150-fill)" fill-rule="evenodd" stroke="none" stroke-width="1" stroke-linecap="round" stroke-linejoin="round" stroke-miterlimit="1.500000"/><path id="ewthocoo35151" d="M8147.390000,4772.450000C8159.010000,4749.330000,8161,4737.140000,8157.550000,4700.110000C8156.040000,4683.910000,8161.240000,4672.850000,8174.390000,4666.700000C8179.630000,4664.250000,8185.450000,4663.100000,8191.210000,4662.900000C8195.390000,4662.770000,8199.630000,4663.170000,8203.690000,4664.160000C8206.680000,4664.890000,8209.670000,4665.960000,8212.330000,4667.530000C8214.300000,4668.710000,8216.120000,4670.200000,8217.570000,4671.990000C8223.590000,4679.420000,8222.990000,4687.480000,8220.570000,4695.630000C8218.380000,4702.990000,8214.650000,4710.400000,8214.040000,4717.390000C8213.870000,4719.250000,8213.850000,4721.160000,8214.270000,4722.990000C8215.460000,4728.150000,8219.430000,4730.180000,8223.930000,4730.590000C8228.960000,4731.040000,8234.660000,4729.560000,8238.660000,4727.690000C8241.260000,4726.480000,8243.730000,4724.990000,8245.910000,4723.110000C8253.410000,4716.650000,8255.780000,4707.590000,8255.720000,4698.140000C8255.650000,4688.290000,8252.930000,4678.020000,8250.230000,4669.570000C8249.060000,4665.930000,8247.760000,4662.340000,8246.380000,4658.780000C8244.640000,4654.260000,8242.730000,4649.810000,8240.800000,4645.360000C8238.370000,4639.760000,8235.850000,4634.210000,8233.570000,4628.550000C8230.960000,4622.040000,8227.360000,4611.850000,8228.150000,4603.440000C8228.730000,4597.270000,8231.530000,4591.990000,8238.270000,4589.330000C8240.370000,4588.500000,8242.650000,4588.140000,8244.900000,4588C8266.960000,4586.640000,8284.290000,4605.130000,8290.490000,4624.570000C8296.860000,4644.560000,8295.760000,4665.600000,8294.360000,4686.250000C8293.400000,4700.460000,8291.660000,4714.910000,8295.400000,4728.890000C8298.590000,4740.800000,8305.650000,4750.490000,8313.100000,4760.090000C8317.100000,4765.240000,8321.010000,4770.620000,8321.060000,4777.360000C8321.100000,4777.680000,8321.120000,4778,8321.120000,4778.320000C8321.120000,4782.700000,8317.440000,4787.100000,8310.400000,4790.740000C8295.920000,4798.220000,8266.770000,4803.410000,8233.170000,4803.410000C8199.580000,4803.410000,8170.430000,4798.220000,8155.950000,4790.740000C8148.900000,4787.100000,8145.230000,4782.700000,8145.230000,4778.320000C8145.230000,4777.990000,8145.790000,4774.760000,8147.390000,4772.450000ZM8149.190000,4773.520000C8161.050000,4749.950000,8163.140000,4737.600000,8159.630000,4699.920000C8158.210000,4684.750000,8162.970000,4674.350000,8175.280000,4668.590000C8180.260000,4666.260000,8185.800000,4665.170000,8191.280000,4664.990000C8195.270000,4664.860000,8199.320000,4665.240000,8203.200000,4666.190000C8205.990000,4666.870000,8208.780000,4667.860000,8211.260000,4669.330000C8213.020000,4670.380000,8214.660000,4671.700000,8215.950000,4673.300000C8227.010000,4686.960000,8213.200000,4702.980000,8211.960000,4717.210000C8211.780000,4719.280000,8211.770000,4721.410000,8212.240000,4723.450000C8215.080000,4735.830000,8230.970000,4733.590000,8239.540000,4729.580000C8242.320000,4728.290000,8244.940000,4726.690000,8247.270000,4724.690000C8263.250000,4710.930000,8257.740000,4686.190000,8252.210000,4668.940000C8251.040000,4665.260000,8249.720000,4661.630000,8248.330000,4658.030000C8246.580000,4653.480000,8244.650000,4649,8242.710000,4644.530000C8240.300000,4638.950000,8237.780000,4633.420000,8235.510000,4627.780000C8231.320000,4617.340000,8224.310000,4597.090000,8239.030000,4591.270000C8240.940000,4590.520000,8243,4590.210000,8245.030000,4590.080000C8266.130000,4588.780000,8282.570000,4606.610000,8288.500000,4625.200000C8294.790000,4644.940000,8293.660000,4665.720000,8292.280000,4686.110000C8291.300000,4700.550000,8289.580000,4715.230000,8293.390000,4729.430000C8296.650000,4741.620000,8303.830000,4751.550000,8311.450000,4761.370000C8315.190000,4766.190000,8318.980000,4771.170000,8318.980000,4777.480000C8319.010000,4777.760000,8319.030000,4778.040000,8319.030000,4778.320000C8319.030000,4791.010000,8280.560000,4801.320000,8233.170000,4801.320000C8185.790000,4801.320000,8147.320000,4791.010000,8147.320000,4778.320000C8147.320000,4778.050000,8147.840000,4775.370000,8149.190000,4773.520000Z" clip-rule="evenodd" fill="rgb(14,15,35)" fill-rule="evenodd" stroke="none" stroke-width="1" stroke-linecap="round" stroke-linejoin="round" stroke-miterlimit="1.500000"/></g></g><clipPath id="ewthocoo35152"><path id="ewthocoo35153" d="M8319.030000,4778.320000C8319.030000,4791.010000,8280.560000,4801.320000,8233.170000,4801.320000C8185.790000,4801.320000,8147.320000,4791.010000,8147.320000,4778.320000C8147.320000,4778.320000,8147.320000,4575.190000,8147.320000,4575.190000L8319.030000,4575.190000L8319.030000,4778.320000Z" clip-rule="evenodd" fill="rgb(0,0,0)" fill-rule="evenodd" stroke="none" stroke-width="1" stroke-linecap="round" stroke-linejoin="round" stroke-miterlimit="1.500000"/></clipPath></g></g><g id="ewthocoo35154" transform="matrix(0.78641400000000 0 0 0.78641400000000 -5514.68000000000029 -3092.09999999999991)" clip-rule="evenodd"><path id="ewthocoo35155" d="M8319.580000,4768.620000L8317.490000,4766.230000L8317.060000,4766.100000L8319.040000,4771.130000L8319.580000,4768.620000Z" clip-rule="evenodd" fill="rgb(14,15,35)" fill-rule="evenodd" stroke="none" stroke-width="1" stroke-linecap="round" stroke-linejoin="round" stroke-miterlimit="1.500000"/><path id="ewthocoo35156" d="M8147.320000,4768.120000L8151.270000,4765.520000L8147.190000,4775.120000L8146.410000,4770.900000L8147.320000,4768.120000Z" clip-rule="evenodd" fill="rgb(14,15,35)" fill-rule="evenodd" stroke="none" stroke-width="1" stroke-linecap="round" stroke-linejoin="round" stroke-miterlimit="1.500000"/></g></g></g><g id="ewthocoo35157" transform="matrix(1 0 0 1 -2672.19999999999982 6922.23999999999978)" clip-rule="evenodd"><g id="ewthocoo35158" transform="matrix(1.99885000000000 -1.62416000000000 -1.62416000000000 -1.99885000000000 17256.29999999999927 9069.11000000000058)" clip-rule="evenodd"><g id="ewthocoo35159" transform="matrix(-0.73152300000000 0.26922700000000 -0.26922700000000 -0.73152300000000 6254.35000000000036 2468.23999999999978)" clip-rule="evenodd"><path id="ewthocoo35160" d="M5318.250000,4680.010000L5183.470000,4386.640000C5182.410000,4384.360000,5183.420000,4381.650000,5185.710000,4380.590000C5187.990000,4379.540000,5190.700000,4380.550000,5191.750000,4382.830000L5326.540000,4676.200000L5318.250000,4680.010000Z" clip-rule="evenodd" fill="rgb(255,255,255)" fill-rule="evenodd" stroke="rgb(255,255,255)" stroke-width="6.900000" stroke-linecap="round" stroke-linejoin="round" stroke-miterlimit="1.500000"/></g><g id="ewthocoo35161" transform="matrix(0.34471800000000 -0.34329800000000 0.37446800000000 0.37601700000000 -479.56799999999998 -811.28599999999994)" clip-rule="evenodd"><path id="ewthocoo35162" d="M438.405000,4109.341012C438.405000,4107.806342,435.131000,4106.562016,431.098000,4106.562016C427.065000,4106.562016,423.791000,4107.806342,423.791000,4109.341012L423.791000,4303.261004C423.791000,4304.795673,427.065000,4306.040000,431.098000,4306.040000C435.131000,4306.040000,438.405000,4304.795673,438.405000,4303.261004L438.405000,4109.341012Z" clip-rule="evenodd" fill="none" fill-rule="evenodd" stroke="rgb(255,255,255)" stroke-width="11" stroke-linecap="round" stroke-linejoin="round" stroke-miterlimit="1.500000"/><path id="ewthocoo35163" d="M438.405000,4109.341012C438.405000,4107.806342,435.131000,4106.562016,431.098000,4106.562016C427.065000,4106.562016,423.791000,4107.806342,423.791000,4109.341012L423.791000,4303.261004C423.791000,4304.795673,427.065000,4306.040000,431.098000,4306.040000C435.131000,4306.040000,438.405000,4304.795673,438.405000,4303.261004L438.405000,4109.341012Z" clip-rule="evenodd" fill="rgb(249,249,249)" fill-rule="evenodd" stroke="rgb(14,15,35)" stroke-width="4.690000" stroke-linecap="round" stroke-linejoin="round" stroke-miterlimit="1.500000"/></g><g id="ewthocoo35164" transform="matrix(0.34471800000000 -0.34329800000000 0.22523600000000 0.22616800000000 91.26139999999999 -238.09500000000000)" clip-rule="evenodd"><rect id="ewthocoo35165" width="14.614000" height="14.469634" rx="0" ry="0" transform="matrix(1 0 0 1 423.79100000000000 4291.56736590904620)" clip-rule="evenodd" fill="rgb(249,249,249)" fill-rule="evenodd" stroke="rgb(14,15,35)" stroke-width="4.730000" stroke-linecap="round" stroke-linejoin="round" stroke-miterlimit="1.500000"/></g><g id="ewthocoo35166" transform="matrix(0.34471800000000 -0.34329800000000 0.21915500000000 0.22006100000000 114.52300000000000 -214.73699999999999)" clip-rule="evenodd"><rect id="ewthocoo35167" width="14.614000" height="14.469634" rx="0" ry="0" transform="matrix(1 0 0 1 423.79100000000000 4291.56736590904620)" clip-rule="evenodd" fill="rgb(249,249,249)" fill-rule="evenodd" stroke="rgb(14,15,35)" stroke-width="4.770000" stroke-linecap="round" stroke-linejoin="round" stroke-miterlimit="1.500000"/></g><g id="ewthocoo35168" transform="matrix(0.34471800000000 -0.34329800000000 0.21298300000000 0.21386400000000 138.13000000000000 -191.03299999999999)" clip-rule="evenodd"><rect id="ewthocoo35169" width="14.614000" height="480.927000" rx="0" ry="0" transform="matrix(1 0 0 1 423.79100000000000 3825.11000000000013)" clip-rule="evenodd" fill="rgb(250,82,160)" fill-rule="evenodd" stroke="rgb(14,15,35)" stroke-width="4.810000" stroke-linecap="round" stroke-linejoin="round" stroke-miterlimit="1.500000"/></g></g></g></g></g></g><g id="ewthocoo35170_to" transform="translate(-2672.200000,7049.175166)"><g id="ewthocoo35170" transform="translate(0,0)" clip-rule="evenodd"><g id="ewthocoo35171_tr" transform="translate(18434.984038,5701.569354) rotate(13.512612)"><g id="ewthocoo35171_ts" transform="skewX(-0) skewY(0) scale(0.710811,0.710811)"><g id="ewthocoo35171" transform="translate(-1559.888348,-808.304267)" clip-rule="evenodd"><g id="ewthocoo35172" transform="matrix(1 0 0 1 -3905.90000000000009 -3968.46000000000004)" clip-rule="evenodd"><path id="ewthocoo35173" d="M5390.340000,4766.280000C5390.340000,4744.470000,5424.430000,4726.770000,5466.410000,4726.770000C5508.390000,4726.770000,5542.470000,4744.470000,5542.470000,4766.280000L5542.470000,4787.240000C5542.470000,4809.050000,5508.390000,4826.750000,5466.410000,4826.750000C5424.430000,4826.750000,5390.340000,4809.050000,5390.340000,4787.240000C5390.340000,4787.240000,5390.340000,4766.280000,5390.340000,4766.280000Z" clip-rule="evenodd" fill="none" fill-rule="evenodd" stroke="rgb(255,255,255)" stroke-width="9.020000" stroke-linecap="round" stroke-linejoin="round" stroke-miterlimit="1.500000"/></g><g id="ewthocoo35174" transform="matrix(1 0 0 1 -3905.90000000000009 -3968.46000000000004)" clip-rule="evenodd"><path id="ewthocoo35175" d="M5401.940000,4766.280000C5415.400000,4755.140000,5439.250000,4747.730000,5466.410000,4747.730000C5493.560000,4747.730000,5517.420000,4755.140000,5530.880000,4766.280000L5542.470000,4766.280000L5542.470000,4787.240000C5542.470000,4809.050000,5508.390000,4826.750000,5466.410000,4826.750000C5424.430000,4826.750000,5390.340000,4809.050000,5390.340000,4787.240000C5390.340000,4787.240000,5390.340000,4766.280000,5390.340000,4766.280000L5401.940000,4766.280000Z" clip-rule="evenodd" fill="rgb(14,15,35)" fill-rule="evenodd" stroke="none" stroke-width="1" stroke-linecap="round" stroke-linejoin="round" stroke-miterlimit="1.500000"/><g id="ewthocoo35176" clip-path="url(#ewthocoo35183)" clip-rule="evenodd"><g id="ewthocoo35177"><rect id="ewthocoo35178" width="4.304000" height="54.660000" rx="0" ry="0" transform="matrix(1 0 0 1 5398.32999999999993 4774.44999999999982)" clip-rule="evenodd" fill="rgb(255,255,255)" fill-rule="evenodd" stroke="none" stroke-width="1" stroke-linecap="round" stroke-linejoin="round" stroke-miterlimit="1.500000"/><g id="ewthocoo35179" transform="matrix(1 0 0 1 7.53183000000000 7.53183000000000)" clip-rule="evenodd"><rect id="ewthocoo35180" width="4.304000" height="54.660000" rx="0" ry="0" transform="matrix(1 0 0 1 5398.32999999999993 4774.44999999999982)" clip-rule="evenodd" fill="rgb(255,255,255)" fill-rule="evenodd" stroke="none" stroke-width="1" stroke-linecap="round" stroke-linejoin="round" stroke-miterlimit="1.500000"/></g><g id="ewthocoo35181" transform="matrix(1 0 0 1 15.27890000000000 15.27890000000000)" clip-rule="evenodd"><rect id="ewthocoo35182" width="4.304000" height="54.660000" rx="0" ry="0" transform="matrix(1 0 0 1 5398.32999999999993 4774.44999999999982)" clip-rule="evenodd" fill="rgb(255,255,255)" fill-rule="evenodd" stroke="none" stroke-width="1" stroke-linecap="round" stroke-linejoin="round" stroke-miterlimit="1.500000"/></g></g><clipPath id="ewthocoo35183"><path id="ewthocoo35184" d="M5401.940000,4766.280000C5415.400000,4755.140000,5439.250000,4747.730000,5466.410000,4747.730000C5493.560000,4747.730000,5517.420000,4755.140000,5530.880000,4766.280000L5542.470000,4766.280000L5542.470000,4787.240000C5542.470000,4809.050000,5508.390000,4826.750000,5466.410000,4826.750000C5424.430000,4826.750000,5390.340000,4809.050000,5390.340000,4787.240000C5390.340000,4787.240000,5390.340000,4766.280000,5390.340000,4766.280000L5401.940000,4766.280000Z" clip-rule="evenodd" fill="rgb(0,0,0)" fill-rule="evenodd" stroke="none" stroke-width="1" stroke-linecap="round" stroke-linejoin="round" stroke-miterlimit="1.500000"/></clipPath></g><path id="ewthocoo35185" d="M5401.940000,4766.280000C5415.400000,4755.140000,5439.250000,4747.730000,5466.410000,4747.730000C5493.560000,4747.730000,5517.420000,4755.140000,5530.880000,4766.280000L5542.470000,4766.280000L5542.470000,4787.240000C5542.470000,4809.050000,5508.390000,4826.750000,5466.410000,4826.750000C5424.430000,4826.750000,5390.340000,4809.050000,5390.340000,4787.240000C5390.340000,4787.240000,5390.340000,4766.280000,5390.340000,4766.280000L5401.940000,4766.280000Z" clip-rule="evenodd" fill="none" fill-rule="evenodd" stroke="rgb(14,15,35)" stroke-width="3.920000" stroke-linecap="round" stroke-linejoin="round" stroke-miterlimit="1.500000"/></g><g id="ewthocoo35186" transform="matrix(1 0 0 1.12214000000000 -3878.28000000000020 -4546.55000000000018)" clip-rule="evenodd"><ellipse id="ewthocoo35187" rx="76.065000" ry="35.210000" transform="matrix(1 0 0 1 5438.77999999999975 4762.67000000000007)" clip-rule="evenodd" fill="rgb(250,82,160)" fill-rule="evenodd" stroke="rgb(14,15,35)" stroke-width="3.920000" stroke-linecap="round" stroke-linejoin="round" stroke-miterlimit="1.500000"/></g><g id="ewthocoo35188" transform="matrix(0.73592300000000 0 0 0.76327300000000 -2442.01999999999998 -2837.40000000000009)" clip-rule="evenodd"><ellipse id="ewthocoo35189" rx="76.065000" ry="35.210000" transform="matrix(1 0 0 1 5438.77999999999975 4762.67000000000007)" clip-rule="evenodd" fill="rgb(14,15,35)" fill-rule="evenodd" stroke="none" stroke-width="1" stroke-linecap="round" stroke-linejoin="round" stroke-miterlimit="1.500000"/><g id="ewthocoo35190" clip-path="url(#ewthocoo35196)" clip-rule="evenodd"><g id="ewthocoo35191"><g id="ewthocoo35192" transform="matrix(1 0 0 1 0 9.70035000000000)" clip-rule="evenodd"><ellipse id="ewthocoo35193" rx="76.065000" ry="35.210000" transform="matrix(1 0 0 1 5438.77999999999975 4762.67000000000007)" clip-rule="evenodd" fill="rgb(255,255,255)" fill-rule="evenodd" stroke="rgb(14,15,35)" stroke-width="3.920000" stroke-linecap="round" stroke-linejoin="round" stroke-miterlimit="1.500000"/></g><g id="ewthocoo35194" transform="matrix(1.09677000000000 -0.61052900000000 1.60073000000000 0.51889000000000 3461.25000000000000 5191.43999999999960)" clip-rule="evenodd"><path id="ewthocoo35195" d="M1099.610000,458.926000L1116.780000,493.262000L1082.440000,493.262000L1099.610000,458.926000Z" clip-rule="evenodd" fill="rgb(250,82,160)" fill-rule="evenodd" stroke="rgb(14,15,35)" stroke-width="2.230000" stroke-linecap="round" stroke-linejoin="round" stroke-miterlimit="1.500000"/></g></g><clipPath id="ewthocoo35196"><ellipse id="ewthocoo35197" rx="76.065000" ry="35.210000" transform="matrix(1 0 0 1 5438.77999999999975 4762.67000000000007)" clip-rule="evenodd" fill="rgb(0,0,0)" fill-rule="evenodd" stroke="none" stroke-width="1" stroke-linecap="round" stroke-linejoin="round" stroke-miterlimit="1.500000"/></clipPath></g><ellipse id="ewthocoo35198" rx="76.065000" ry="35.210000" transform="matrix(1 0 0 1 5438.77999999999975 4762.67000000000007)" clip-rule="evenodd" fill="none" fill-rule="evenodd" stroke="rgb(14,15,35)" stroke-width="3.920000" stroke-linecap="round" stroke-linejoin="round" stroke-miterlimit="1.500000"/></g></g></g></g></g></g><g id="ewthocoo35199_to" transform="translate(-2672.200000,7049.175166)"><g id="ewthocoo35199" transform="translate(0,0)" clip-rule="evenodd"><g id="ewthocoo351100_tr" transform="translate(18961.700068,5773.163813) rotate(-7.115493)"><g id="ewthocoo351100_ts" transform="skewX(-0) skewY(0) scale(0.767247,0.767247)"><g id="ewthocoo351100" transform="translate(-1558.109029,-807.076625)" clip-rule="evenodd"><g id="ewthocoo351101" transform="matrix(1 0 0 1 -3905.90000000000009 -3968.46000000000004)" clip-rule="evenodd"><path id="ewthocoo351102" d="M5390.340000,4766.280000C5390.340000,4744.470000,5424.430000,4726.770000,5466.410000,4726.770000C5508.390000,4726.770000,5542.470000,4744.470000,5542.470000,4766.280000L5542.470000,4787.240000C5542.470000,4809.050000,5508.390000,4826.750000,5466.410000,4826.750000C5424.430000,4826.750000,5390.340000,4809.050000,5390.340000,4787.240000C5390.340000,4787.240000,5390.340000,4766.280000,5390.340000,4766.280000Z" clip-rule="evenodd" fill="none" fill-rule="evenodd" stroke="rgb(255,255,255)" stroke-width="9.020000" stroke-linecap="round" stroke-linejoin="round" stroke-miterlimit="1.500000"/></g><g id="ewthocoo351103" transform="matrix(1 0 0 1 -3905.90000000000009 -3968.46000000000004)" clip-rule="evenodd"><path id="ewthocoo351104" d="M5401.940000,4766.280000C5415.400000,4755.140000,5439.250000,4747.730000,5466.410000,4747.730000C5493.560000,4747.730000,5517.420000,4755.140000,5530.880000,4766.280000L5542.470000,4766.280000L5542.470000,4787.240000C5542.470000,4809.050000,5508.390000,4826.750000,5466.410000,4826.750000C5424.430000,4826.750000,5390.340000,4809.050000,5390.340000,4787.240000C5390.340000,4787.240000,5390.340000,4766.280000,5390.340000,4766.280000L5401.940000,4766.280000Z" clip-rule="evenodd" fill="rgb(14,15,35)" fill-rule="evenodd" stroke="none" stroke-width="1" stroke-linecap="round" stroke-linejoin="round" stroke-miterlimit="1.500000"/><g id="ewthocoo351105" clip-path="url(#ewthocoo351112)" clip-rule="evenodd"><g id="ewthocoo351106"><rect id="ewthocoo351107" width="4.304000" height="54.660000" rx="0" ry="0" transform="matrix(1 0 0 1 5398.32999999999993 4774.44999999999982)" clip-rule="evenodd" fill="rgb(255,255,255)" fill-rule="evenodd" stroke="none" stroke-width="1" stroke-linecap="round" stroke-linejoin="round" stroke-miterlimit="1.500000"/><g id="ewthocoo351108" transform="matrix(1 0 0 1 7.53183000000000 7.53183000000000)" clip-rule="evenodd"><rect id="ewthocoo351109" width="4.304000" height="54.660000" rx="0" ry="0" transform="matrix(1 0 0 1 5398.32999999999993 4774.44999999999982)" clip-rule="evenodd" fill="rgb(255,255,255)" fill-rule="evenodd" stroke="none" stroke-width="1" stroke-linecap="round" stroke-linejoin="round" stroke-miterlimit="1.500000"/></g><g id="ewthocoo351110" transform="matrix(1 0 0 1 15.27890000000000 15.27890000000000)" clip-rule="evenodd"><rect id="ewthocoo351111" width="4.304000" height="54.660000" rx="0" ry="0" transform="matrix(1 0 0 1 5398.32999999999993 4774.44999999999982)" clip-rule="evenodd" fill="rgb(255,255,255)" fill-rule="evenodd" stroke="none" stroke-width="1" stroke-linecap="round" stroke-linejoin="round" stroke-miterlimit="1.500000"/></g></g><clipPath id="ewthocoo351112"><path id="ewthocoo351113" d="M5401.940000,4766.280000C5415.400000,4755.140000,5439.250000,4747.730000,5466.410000,4747.730000C5493.560000,4747.730000,5517.420000,4755.140000,5530.880000,4766.280000L5542.470000,4766.280000L5542.470000,4787.240000C5542.470000,4809.050000,5508.390000,4826.750000,5466.410000,4826.750000C5424.430000,4826.750000,5390.340000,4809.050000,5390.340000,4787.240000C5390.340000,4787.240000,5390.340000,4766.280000,5390.340000,4766.280000L5401.940000,4766.280000Z" clip-rule="evenodd" fill="rgb(0,0,0)" fill-rule="evenodd" stroke="none" stroke-width="1" stroke-linecap="round" stroke-linejoin="round" stroke-miterlimit="1.500000"/></clipPath></g><path id="ewthocoo351114" d="M5401.940000,4766.280000C5415.400000,4755.140000,5439.250000,4747.730000,5466.410000,4747.730000C5493.560000,4747.730000,5517.420000,4755.140000,5530.880000,4766.280000L5542.470000,4766.280000L5542.470000,4787.240000C5542.470000,4809.050000,5508.390000,4826.750000,5466.410000,4826.750000C5424.430000,4826.750000,5390.340000,4809.050000,5390.340000,4787.240000C5390.340000,4787.240000,5390.340000,4766.280000,5390.340000,4766.280000L5401.940000,4766.280000Z" clip-rule="evenodd" fill="none" fill-rule="evenodd" stroke="rgb(14,15,35)" stroke-width="3.920000" stroke-linecap="round" stroke-linejoin="round" stroke-miterlimit="1.500000"/></g><g id="ewthocoo351115" transform="matrix(1 0 0 1.12214000000000 -3878.28000000000020 -4546.55000000000018)" clip-rule="evenodd"><ellipse id="ewthocoo351116" rx="76.065000" ry="35.210000" transform="matrix(1 0 0 1 5438.77999999999975 4762.67000000000007)" clip-rule="evenodd" fill="rgb(39,176,230)" fill-rule="evenodd" stroke="rgb(14,15,35)" stroke-width="3.920000" stroke-linecap="round" stroke-linejoin="round" stroke-miterlimit="1.500000"/></g><g id="ewthocoo351117" transform="matrix(0.73592300000000 0 0 0.76327300000000 -2442.01999999999998 -2837.40000000000009)" clip-rule="evenodd"><ellipse id="ewthocoo351118" rx="76.065000" ry="35.210000" transform="matrix(1 0 0 1 5438.77999999999975 4762.67000000000007)" clip-rule="evenodd" fill="rgb(14,15,35)" fill-rule="evenodd" stroke="none" stroke-width="1" stroke-linecap="round" stroke-linejoin="round" stroke-miterlimit="1.500000"/><g id="ewthocoo351119" clip-path="url(#ewthocoo351125)" clip-rule="evenodd"><g id="ewthocoo351120"><g id="ewthocoo351121" transform="matrix(1 0 0 1 0 9.70035000000000)" clip-rule="evenodd"><ellipse id="ewthocoo351122" rx="76.065000" ry="35.210000" transform="matrix(1 0 0 1 5438.77999999999975 4762.67000000000007)" clip-rule="evenodd" fill="rgb(255,255,255)" fill-rule="evenodd" stroke="rgb(14,15,35)" stroke-width="3.920000" stroke-linecap="round" stroke-linejoin="round" stroke-miterlimit="1.500000"/></g><g id="ewthocoo351123" transform="matrix(1.09677000000000 -0.61052900000000 1.60073000000000 0.51889000000000 3461.25000000000000 5191.43999999999960)" clip-rule="evenodd"><path id="ewthocoo351124" d="M1099.610000,458.926000L1116.780000,493.262000L1082.440000,493.262000L1099.610000,458.926000Z" clip-rule="evenodd" fill="rgb(39,176,230)" fill-rule="evenodd" stroke="rgb(14,15,35)" stroke-width="2.230000" stroke-linecap="round" stroke-linejoin="round" stroke-miterlimit="1.500000"/></g></g><clipPath id="ewthocoo351125"><ellipse id="ewthocoo351126" rx="76.065000" ry="35.210000" transform="matrix(1 0 0 1 5438.77999999999975 4762.67000000000007)" clip-rule="evenodd" fill="rgb(0,0,0)" fill-rule="evenodd" stroke="none" stroke-width="1" stroke-linecap="round" stroke-linejoin="round" stroke-miterlimit="1.500000"/></clipPath></g><ellipse id="ewthocoo351127" rx="76.065000" ry="35.210000" transform="matrix(1 0 0 1 5438.77999999999975 4762.67000000000007)" clip-rule="evenodd" fill="none" fill-rule="evenodd" stroke="rgb(14,15,35)" stroke-width="3.920000" stroke-linecap="round" stroke-linejoin="round" stroke-miterlimit="1.500000"/></g></g></g></g></g></g></g></g></svg>